# Blender 3.6.4
# www.blender.org
mtllib Exit_Low.mtl
o Low
v -0.292252 1.000000 -1.649580
v -0.207467 0.915214 -1.714903
v -0.292252 -1.000000 -1.649580
v -0.207467 -0.915214 -1.714903
v -0.292252 1.000000 1.649580
v -0.207467 0.915214 1.714903
v -0.292252 -1.000000 1.649580
v -0.207467 -0.915214 1.714903
v -1.000000 1.000000 -1.897049
v -1.000000 0.915214 -2.013710
v -1.000000 -0.915214 -2.013710
v -1.000000 -1.000000 -1.897049
v -1.000000 0.915214 2.013710
v -1.000000 1.000000 1.897050
v -1.000000 -1.000000 1.897050
v -1.000000 -0.915214 2.013710
v -1.000000 -0.834759 -2.013710
v -1.000000 0.834759 -2.013710
v -0.207467 0.834759 -1.714903
v -0.207467 -0.834759 -1.714903
v -0.207467 0.834759 1.714903
v -0.207467 -0.834759 1.714903
v -1.000000 0.834759 2.013710
v -1.000000 -0.834759 2.013710
v -0.292252 1.000000 -0.581370
v -0.292252 1.000000 0.581370
v -0.207467 0.915214 0.581370
v -0.207467 0.915214 -0.581370
v -0.292252 -1.000000 0.581370
v -0.292252 -1.000000 -0.581370
v -0.207467 -0.915214 -0.581370
v -0.207467 -0.915214 0.581370
v -1.000000 1.000000 -0.581370
v -1.000000 1.000000 0.581370
v -1.000000 -1.000000 0.581370
v -1.000000 -1.000000 -0.581370
v -0.207467 -0.834759 -0.581370
v -0.207467 -0.834759 0.581370
v -0.207467 0.834759 -0.581370
v -0.207467 0.834759 0.581370
v -0.207467 0.783915 -0.537999
v -0.207467 -0.783915 -0.537999
v -0.207467 0.783915 0.537999
v -0.207467 -0.783915 0.537999
v -0.990980 0.770666 -1.972793
v -0.990980 0.820651 -1.972793
v -0.245747 -0.770666 -1.690258
v -0.245747 -0.820651 -1.690258
v -0.245747 -0.770666 1.690258
v -0.245747 -0.820651 1.690258
v -0.990980 -0.770666 1.972793
v -0.990980 -0.820651 1.972793
v -0.990980 -0.820651 -1.972793
v -0.245747 0.820651 -1.690258
v -0.245747 -0.820651 0.573014
v -0.245747 0.820651 0.573014
v -0.245747 0.820651 1.690258
v -0.990980 0.820651 1.972793
v -0.245747 -0.820651 -0.573014
v -0.245747 0.820651 -0.573014
v -0.245747 -0.770666 -0.530267
v -0.245747 -0.770666 0.530267
v -0.990980 -0.770666 -1.972793
v -0.245747 0.770666 -1.690258
v -0.245747 0.770666 1.690258
v -0.990980 0.770666 1.972793
v -0.245747 0.770666 -0.530267
v -0.245747 0.770666 0.530267
vn -0.0000 -1.0000 -0.0000
vn 0.3827 -0.9239 -0.0000
vn 0.3532 -0.9078 0.2264
vn 0.1407 -0.9115 0.3865
vn 0.7091 -0.5069 0.4901
vn 0.7564 0.3936 0.5224
vn 0.3233 0.3773 0.8678
vn 0.3168 -0.4406 0.8399
vn 0.3827 0.9239 -0.0000
vn -0.0000 1.0000 -0.0000
vn 0.1407 0.9115 0.3865
vn 0.3532 0.9078 0.2264
vn 0.8767 -0.4516 0.1657
vn 0.9239 0.3827 -0.0000
vn 0.3532 -0.9078 -0.2264
vn 0.1407 -0.9115 -0.3865
vn 0.3233 -0.3773 -0.8678
vn 0.7564 -0.3936 -0.5224
vn 0.7564 -0.3936 0.5224
vn 0.3233 -0.3773 0.8678
vn 0.1407 0.9115 -0.3865
vn 0.3532 0.9078 -0.2264
vn 0.7564 0.3936 -0.5224
vn 0.3233 0.3773 -0.8678
vn 0.9239 -0.3827 -0.0000
vn 0.3168 -0.4406 -0.8399
vn 0.7091 -0.5069 -0.4901
vn 0.3168 0.4406 -0.8399
vn 0.7091 0.5069 -0.4901
vn 0.6960 0.6225 -0.3579
vn 0.8767 0.4516 -0.1657
vn 0.6986 0.6180 -0.3606
vn 0.8735 0.4562 -0.1698
vn 0.8767 0.4516 0.1657
vn 0.7091 0.5069 0.4901
vn 0.8767 -0.4516 -0.1657
vn 0.6960 -0.6225 -0.3579
vn 0.8735 -0.4562 -0.1698
vn 0.6986 -0.6180 -0.3606
vn 0.3168 0.4406 0.8399
vn 0.6960 -0.6225 0.3579
vn 0.6960 0.6225 0.3579
vn 0.5657 -0.7218 -0.3988
vn 0.2713 -0.6429 0.7163
vn 0.5657 -0.7218 0.3988
vn 0.8735 -0.4562 0.1698
vn 0.5657 0.7218 0.3988
vn 0.2713 0.6429 0.7163
vn 0.8735 0.4562 0.1698
vn 0.5657 0.7218 -0.3988
vn 0.6986 -0.6180 0.3606
vn 0.3545 -0.0000 -0.9351
vn 0.2713 -0.6429 -0.7163
vn 0.8230 -0.0000 -0.5681
vn 0.8230 -0.0000 0.5681
vn 0.3545 -0.0000 0.9351
vn 0.6986 0.6180 0.3606
vn 0.2713 0.6429 -0.7163
vt 0.725687 0.358504
vt 0.611940 0.383726
vt 0.611940 0.174772
vt 0.725687 0.022821
vt 0.249725 0.167536
vt 0.235583 0.168112
vt 0.206584 0.003220
vt 0.226502 0.000090
vt 0.201513 0.373581
vt 0.087766 0.337446
vt 0.087766 0.019648
vt 0.201513 0.170530
vt 0.239920 0.376586
vt 0.222056 0.375486
vt 0.611940 0.829470
vt 0.725687 0.980352
vt 0.606869 0.996780
vt 0.577870 0.831888
vt 0.600093 0.170916
vt 0.638651 0.004340
vt 0.087766 0.977179
vt 0.201513 0.825228
vt 0.213360 0.829084
vt 0.174801 0.995660
vt 0.611940 0.626419
vt 0.591396 0.624514
vt 0.195749 0.999910
vt 0.226915 0.831048
vt 0.586951 0.999910
vt 0.563727 0.832464
vt 0.565744 0.613859
vt 0.573533 0.623414
vt 0.565831 0.623925
vt 0.557741 0.614440
vt 0.598594 0.383879
vt 0.581509 0.383938
vt 0.586538 0.168952
vt 0.231944 0.616062
vt 0.241498 0.606092
vt 0.250484 0.607404
vt 0.240448 0.617328
vt 0.617704 0.000090
vt 0.247709 0.386141
vt 0.201513 0.616274
vt 0.214859 0.616121
vt 0.087766 0.641496
vt 0.725687 0.662554
vt 0.571954 0.393907
vt 0.234407 0.832297
vt 0.233746 0.003218
vt 0.257141 0.166721
vt 0.255712 0.385560
vt 0.579045 0.167703
vt 0.610209 0.002917
vt 0.562969 0.392596
vt 0.556312 0.833279
vt 0.247622 0.376075
vt 0.213794 0.999113
vt 0.203244 0.997083
vt 0.245009 0.833361
vt 0.267592 0.166177
vt 0.242657 0.001889
vt 0.545860 0.833823
vt 0.568444 0.166639
vt 0.599658 0.000887
vt 0.573005 0.382672
vt 0.579706 0.996782
vt 0.570795 0.998111
s 1
usemtl Material
f 35/1/1 29/2/2 7/3/3 15/4/4
f 21/5/5 6/6/6 13/7/7 23/8/8
f 26/9/9 34/10/10 14/11/11 5/12/12
f 40/13/13 27/14/14 6/6/6 21/5/5
f 3/15/15 12/16/16 11/17/17 4/18/18
f 5/12/12 14/11/11 13/7/7 6/6/6
f 26/9/9 5/12/12 6/6/6 27/14/14
f 15/4/4 7/3/3 8/19/19 16/20/20
f 9/21/21 1/22/22 2/23/23 10/24/24
f 30/25/2 3/15/15 4/18/18 31/26/25
f 18/27/26 10/24/24 2/23/23 19/28/27
f 11/17/17 17/29/28 20/30/29 4/18/18
f 42/31/30 37/32/31 59/33/32 61/34/33
f 32/35/25 38/36/34 22/37/35 8/19/19
f 39/38/36 41/39/37 67/40/38 60/41/39
f 8/19/19 22/37/35 24/42/40 16/20/20
f 41/39/37 39/38/36 40/13/13 43/43/41
f 4/18/18 20/30/29 37/32/31 31/26/25
f 31/26/25 37/32/31 38/36/34 32/35/25
f 7/3/3 29/2/2 32/35/25 8/19/19
f 29/2/2 30/25/2 31/26/25 32/35/25
f 1/22/22 25/44/9 28/45/14 2/23/23
f 25/44/9 26/9/9 27/14/14 28/45/14
f 19/28/27 2/23/23 28/45/14 39/38/36
f 39/38/36 28/45/14 27/14/14 40/13/13
f 1/22/22 9/21/21 33/46/10 25/44/9
f 25/44/9 33/46/10 34/10/10 26/9/9
f 12/16/16 3/15/15 30/25/2 36/47/1
f 36/47/1 30/25/2 29/2/2 35/1/1
f 37/32/31 42/31/30 44/48/42 38/36/34
f 19/28/27 39/38/36 60/41/39 54/49/43
f 21/5/5 23/8/8 58/50/44 57/51/45
f 41/39/37 43/43/41 68/52/46 67/40/38
f 24/42/40 22/37/35 50/53/47 52/54/48
f 44/48/42 42/31/30 61/34/33 62/55/49
f 37/32/31 20/30/29 48/56/50 59/33/32
f 40/13/13 21/5/5 57/51/45 56/57/51
f 45/58/52 46/59/53 54/49/43 64/60/54
f 68/52/46 56/57/51 57/51/45 65/61/55
f 65/61/55 57/51/45 58/50/44 66/62/56
f 64/60/54 54/49/43 60/41/39 67/40/38
f 61/34/33 67/40/38 68/52/46 62/55/49
f 48/56/50 47/63/54 61/34/33 59/33/32
f 47/63/54 64/60/54 67/40/38 61/34/33
f 50/53/47 49/64/55 51/65/56 52/54/48
f 49/64/55 65/61/55 66/62/56 51/65/56
f 55/66/57 62/55/49 49/64/55 50/53/47
f 62/55/49 68/52/46 65/61/55 49/64/55
f 53/67/58 63/68/52 47/63/54 48/56/50
f 63/68/52 45/58/52 64/60/54 47/63/54
f 20/30/29 17/29/28 53/67/58 48/56/50
f 38/36/34 44/48/42 62/55/49 55/66/57
f 18/27/26 19/28/27 54/49/43 46/59/53
f 43/43/41 40/13/13 56/57/51 68/52/46
f 22/37/35 38/36/34 55/66/57 50/53/47
