# Blender 3.6.4
# www.blender.org
mtllib floodLight_Low.mtl
o Low
v -0.236103 -0.357086 0.341272
v -1.000000 0.153113 1.445439
v -0.236103 -0.357086 -0.341272
v -1.000000 0.153113 -1.445439
v 0.236103 -0.357086 0.341272
v 1.000000 0.153113 1.445439
v 0.236103 -0.357086 -0.341272
v 1.000000 0.153113 -1.445439
v -0.609715 0.302233 1.021001
v -0.609715 0.302233 -1.021001
v 0.609715 0.302233 -1.021001
v 0.609715 0.302233 1.021001
v -0.490735 -0.187020 0.709328
v -0.745368 -0.016954 1.077383
v -0.745368 -0.016954 -1.077383
v -0.490735 -0.187020 -0.709328
v 0.745368 -0.016954 -1.077383
v 0.490735 -0.187020 -0.709328
v 0.745368 -0.016954 1.077383
v 0.490735 -0.187020 0.709328
v 0.000000 -0.357086 -0.341272
v 0.000000 0.153113 -1.445439
v 0.000000 -0.357086 0.341272
v 0.000000 0.153113 1.445439
v 0.000000 0.272872 -1.123783
v 0.000000 0.272872 1.123783
v 0.000000 -0.187020 0.709328
v 0.000000 -0.016954 1.077383
v 0.000000 -0.187020 -0.709328
v 0.000000 -0.016954 -1.077383
v -0.236103 -0.357086 0.000000
v -1.000000 0.153113 0.000000
v 0.236103 -0.357086 0.000000
v 1.000000 0.153113 0.000000
v -0.712496 0.272872 0.000000
v 0.712496 0.272872 0.000000
v 0.490735 -0.187020 0.000000
v 0.745368 -0.016954 0.000000
v -0.490735 -0.187020 0.000000
v -0.745368 -0.016954 0.000000
v 0.000000 0.346002 0.000000
v 0.000000 -0.357086 0.000000
v -1.000000 0.272872 0.000000
v -1.000000 0.272872 -1.445439
v 0.000000 0.272872 -1.445439
v 1.000000 0.272872 -1.445439
v 1.000000 0.272872 0.000000
v 1.000000 0.272872 1.445439
v 0.000000 0.272872 1.445439
v -1.000000 0.272872 1.445439
v -0.669591 0.282599 0.000000
v -0.712496 0.272872 -1.123783
v 0.000000 0.254290 -1.080877
v 0.712496 0.272872 -1.123783
v 0.669591 0.282599 0.000000
v 0.712496 0.272872 1.123783
v 0.000000 0.254290 1.080877
v -0.712496 0.272872 1.123783
v -0.609715 0.338272 -0.000000
v -0.669591 0.246560 -1.080877
v 0.000000 0.309963 -1.021001
v 0.669591 0.246560 -1.080877
v 0.609715 0.338272 0.000000
v 0.669591 0.246560 1.080877
v 0.000000 0.309963 1.021001
v -0.669591 0.246560 1.080877
vn -0.5554 -0.8316 -0.0000
vn -0.8819 -0.4715 -0.0000
vn -0.6175 -0.4716 -0.6296
vn -0.2965 -0.9284 -0.2239
vn -0.0000 -0.9078 -0.4195
vn -0.0000 -0.5388 -0.8425
vn 0.6175 -0.4716 -0.6296
vn 0.2965 -0.9284 -0.2239
vn 0.5554 -0.8316 -0.0000
vn 0.8819 -0.4715 -0.0000
vn 0.6175 -0.4716 0.6296
vn 0.2965 -0.9284 0.2239
vn -0.0000 -0.9078 0.4195
vn -0.0000 -0.5388 0.8425
vn -0.6175 -0.4716 0.6296
vn -0.2965 -0.9284 0.2239
vn -0.0000 -1.0000 -0.0000
vn 0.2902 -0.9570 -0.0000
vn 0.2354 -0.9595 0.1548
vn -0.0000 -0.9767 0.2147
vn 0.5774 0.5774 -0.5774
vn 0.7071 0.7071 -0.0000
vn -0.0000 1.0000 -0.0000
vn -0.3647 0.9311 -0.0000
vn -0.2891 0.9082 0.3027
vn -0.0000 0.9251 0.3797
vn -0.5774 0.5774 0.5774
vn -0.7071 0.7071 -0.0000
vn 0.5774 0.5774 0.5774
vn -0.0000 0.7071 0.7071
vn -0.5774 0.5774 -0.5774
vn -0.0000 0.7071 -0.7071
vn -0.2354 -0.9595 0.1548
vn -0.0000 -0.9767 -0.2147
vn 0.2354 -0.9595 -0.1548
vn -0.2902 -0.9570 -0.0000
vn -0.2354 -0.9595 -0.1548
vn 0.3647 0.9311 -0.0000
vn 0.2891 0.9082 0.3027
vn 0.2891 0.9082 -0.3027
vn -0.0000 0.9251 -0.3797
vn -0.2891 0.9082 -0.3027
vn 0.0992 0.9951 -0.0000
vn 0.0263 0.9978 0.0613
vn -0.0000 0.9708 0.2397
vn -0.0263 0.9978 0.0613
vn -0.0992 0.9951 -0.0000
vn -0.0263 0.9978 -0.0613
vn -0.0000 0.9708 -0.2397
vn 0.0263 0.9978 -0.0613
vn -0.2718 0.9624 -0.0000
vn -0.0341 0.9973 0.0654
vn -0.0000 0.9914 -0.1311
vn 0.0341 0.9973 0.0654
vn 0.2718 0.9624 -0.0000
vn 0.0341 0.9973 -0.0654
vn -0.0000 0.9914 0.1311
vn -0.0341 0.9973 -0.0654
vt 0.933406 0.317730
vt 0.999884 0.314846
vt 0.997218 0.631061
vt 0.931675 0.547803
vt 0.769620 0.560344
vt 0.773517 0.650426
vt 0.549052 0.650426
vt 0.607132 0.561831
vt 0.585468 0.332812
vt 0.518991 0.335697
vt 0.521656 0.019481
vt 0.587200 0.102739
vt 0.749254 0.090198
vt 0.745357 0.000116
vt 0.969822 0.000116
vt 0.911742 0.088711
vt 0.759437 0.325271
vt 0.712677 0.327306
vt 0.710329 0.260155
vt 0.756491 0.258165
vt 0.000116 0.389939
vt 0.000116 0.071739
vt 0.025416 0.088951
vt 0.029544 0.385346
vt 0.259437 0.353071
vt 0.396416 0.333977
vt 0.409185 0.548410
vt 0.288323 0.572134
vt 0.518758 0.316203
vt 0.518758 0.634402
vt 0.493458 0.617190
vt 0.489330 0.320796
vt 0.308327 0.706025
vt 0.078449 0.690626
vt 0.097294 0.665781
vt 0.303247 0.675743
vt 0.210547 0.000116
vt 0.440426 0.015516
vt 0.421580 0.040361
vt 0.215627 0.030398
vt 0.752994 0.176538
vt 0.855634 0.174936
vt 0.802587 0.256344
vt 0.649940 0.330019
vt 0.650546 0.183771
vt 0.762384 0.392377
vt 0.765880 0.474004
vt 0.663240 0.475606
vt 0.716287 0.394198
vt 0.806197 0.323236
vt 0.868934 0.320523
vt 0.868328 0.466771
vt 0.808545 0.390387
vt 0.122459 0.372164
vt 0.162826 0.579025
vt 0.109689 0.157732
vt 0.230551 0.134008
vt 0.356048 0.127116
vt 0.423784 0.330450
vt 0.377668 0.099212
vt 0.227059 0.106416
vt 0.081734 0.136202
vt 0.095090 0.375692
vt 0.141206 0.606929
vt 0.291815 0.599725
vt 0.437140 0.569939
vt 0.414573 0.331635
vt 0.369199 0.110079
vt 0.228297 0.116136
vt 0.092672 0.144581
vt 0.104301 0.374506
vt 0.149675 0.596063
vt 0.290577 0.590006
vt 0.426202 0.561560
s 1
f 40/1/1 32/2/2 4/3/3 15/4/4
f 30/5/5 22/6/6 8/7/7 17/8/8
f 38/9/9 34/10/10 6/11/11 19/12/12
f 28/13/13 24/14/14 2/15/15 14/16/16
f 42/17/17 33/18/18 5/19/19 23/20/20
f 34/21/10 8/22/7 46/23/21 47/24/22
f 41/25/23 59/26/24 9/27/25 65/28/26
f 32/29/2 2/30/15 50/31/27 43/32/28
f 24/33/14 6/34/11 48/35/29 49/36/30
f 22/37/6 4/38/3 44/39/31 45/40/32
f 23/20/20 27/41/13 13/42/16 1/43/33
f 27/41/13 28/13/13 14/16/16 13/42/16
f 33/18/18 37/44/9 20/45/12 5/19/19
f 37/44/9 38/9/9 19/12/12 20/45/12
f 21/46/34 29/47/5 18/48/8 7/49/35
f 29/47/5 30/5/5 17/8/8 18/48/8
f 31/50/36 39/51/1 16/52/4 3/53/37
f 39/51/1 40/1/1 15/4/4 16/52/4
f 16/52/4 15/4/4 30/5/5 29/47/5
f 3/53/37 16/52/4 29/47/5 21/46/34
f 20/45/12 19/12/12 28/13/13 27/41/13
f 5/19/19 20/45/12 27/41/13 23/20/20
f 8/22/7 22/37/6 45/40/32 46/23/21
f 2/30/15 24/33/14 49/36/30 50/31/27
f 63/54/38 41/25/23 65/28/26 12/55/39
f 31/50/36 42/17/17 23/20/20 1/43/33
f 19/12/12 6/11/11 24/14/14 28/13/13
f 15/4/4 4/3/3 22/6/6 30/5/5
f 3/53/37 21/46/34 42/17/17 31/50/36
f 11/56/40 61/57/41 41/25/23 63/54/38
f 13/42/16 14/16/16 40/1/1 39/51/1
f 1/43/33 13/42/16 39/51/1 31/50/36
f 18/48/8 17/8/8 38/9/9 37/44/9
f 7/49/35 18/48/8 37/44/9 33/18/18
f 4/38/3 32/29/2 43/32/28 44/39/31
f 61/57/41 10/58/42 59/26/24 41/25/23
f 6/34/11 34/21/10 47/24/22 48/35/29
f 21/46/34 7/49/35 33/18/18 42/17/17
f 17/8/8 8/7/7 34/10/10 38/9/9
f 14/16/16 2/15/15 32/2/2 40/1/1
f 35/59/43 52/60/44 44/39/31 43/32/28
f 25/61/45 54/62/46 46/23/21 45/40/32
f 36/63/47 56/64/48 48/35/29 47/24/22
f 26/65/49 58/66/50 50/31/27 49/36/30
f 52/60/44 25/61/45 45/40/32 44/39/31
f 56/64/48 26/65/49 49/36/30 48/35/29
f 58/66/50 35/59/43 43/32/28 50/31/27
f 54/62/46 36/63/47 47/24/22 46/23/21
f 51/67/51 60/68/52 52/60/44 35/59/43
f 53/69/53 62/70/54 54/62/46 25/61/45
f 55/71/55 64/72/56 56/64/48 36/63/47
f 57/73/57 66/74/58 58/66/50 26/65/49
f 60/68/52 53/69/53 25/61/45 52/60/44
f 64/72/56 57/73/57 26/65/49 56/64/48
f 66/74/58 51/67/51 35/59/43 58/66/50
f 62/70/54 55/71/55 36/63/47 54/62/46
f 59/26/24 10/58/42 60/68/52 51/67/51
f 61/57/41 11/56/40 62/70/54 53/69/53
f 63/54/38 12/55/39 64/72/56 55/71/55
f 65/28/26 9/27/25 66/74/58 57/73/57
f 10/58/42 61/57/41 53/69/53 60/68/52
f 12/55/39 65/28/26 57/73/57 64/72/56
f 9/27/25 59/26/24 51/67/51 66/74/58
f 11/56/40 63/54/38 55/71/55 62/70/54
