# Blender 3.6.4
# www.blender.org
mtllib ladder_Low.mtl
o Low
v -0.179402 -7.970171 -1.804205
v -0.179402 -7.970171 -2.163009
v 0.179402 -7.970171 -2.163009
v 0.179402 -7.970171 -1.804205
v -0.165746 1.294485 -1.804205
v -0.165746 1.294485 -2.163009
v 0.165746 1.431794 -2.163009
v 0.165746 1.431794 -1.804205
v -0.525624 1.654363 -1.804205
v -0.525624 1.654363 -2.163009
v -0.388315 1.985855 -2.163009
v -0.388315 1.985855 -1.804205
v -2.409045 1.654363 -1.804205
v -2.409045 1.654363 -2.163009
v -2.546353 1.985855 -2.163009
v -2.546353 1.985855 -1.804205
v -2.768923 1.294485 -1.804205
v -2.768923 1.294485 -2.163009
v -3.100415 1.431794 -2.163009
v -3.100415 1.431794 -1.804205
v -2.755266 0.723127 -1.804205
v -2.755266 0.723127 -2.163009
v -3.114071 0.723127 -2.163009
v -3.114071 0.723127 -1.804205
v -0.179402 1.012333 -1.804205
v -0.179402 1.012333 -2.163009
v 0.179402 1.012333 -2.163009
v 0.179402 1.012333 -1.804205
v -0.179402 -7.056226 -1.804205
v -0.179402 -7.056226 -2.163009
v 0.179402 -7.056226 -2.163009
v 0.179402 -7.056226 -1.804205
v -0.179402 -7.970171 2.163009
v -0.179402 -7.970171 1.804205
v 0.179402 -7.970171 1.804205
v 0.179402 -7.970171 2.163009
v -2.755266 0.723127 2.163009
v -2.755266 0.723127 1.804205
v -3.114071 0.723127 1.804205
v -3.114071 0.723127 2.163009
v -0.165746 1.294485 2.163009
v -0.165746 1.294485 1.804205
v 0.165746 1.431794 1.804205
v 0.165746 1.431794 2.163009
v -0.525624 1.654363 2.163009
v -0.525624 1.654363 1.804205
v -0.388315 1.985855 1.804205
v -0.388315 1.985855 2.163009
v -2.409045 1.654363 2.163009
v -2.409045 1.654363 1.804205
v -2.546353 1.985855 1.804205
v -2.546353 1.985855 2.163009
v -2.768923 1.294485 2.163009
v -2.768923 1.294485 1.804205
v -3.100415 1.431794 1.804205
v -3.100415 1.431794 2.163009
v -0.179402 1.012333 2.163009
v -0.179402 1.012333 1.804205
v 0.179402 1.012333 1.804205
v 0.179402 1.012333 2.163009
v -0.179402 -7.056226 2.163009
v -0.179402 -7.056226 1.804205
v 0.179402 -7.056226 1.804205
v 0.179402 -7.056226 2.163009
v -0.117339 0.811124 1.942764
v -0.117339 1.045802 1.942764
v -0.117339 0.811124 -1.942764
v -0.117339 1.045802 -1.942764
v 0.117339 0.811124 1.942764
v 0.117339 1.045802 1.942764
v 0.117339 0.811124 -1.942764
v 0.117339 1.045802 -1.942764
v -0.117339 -1.254041 1.942764
v -0.117339 -1.019363 1.942764
v -0.117339 -1.254041 -1.942764
v -0.117339 -1.019363 -1.942764
v 0.117339 -1.254041 1.942764
v 0.117339 -1.019363 1.942764
v 0.117339 -1.254041 -1.942764
v 0.117339 -1.019363 -1.942764
v -0.117339 -3.319207 1.942764
v -0.117339 -3.084529 1.942764
v -0.117339 -3.319207 -1.942764
v -0.117339 -3.084529 -1.942764
v 0.117339 -3.319207 1.942764
v 0.117339 -3.084529 1.942764
v 0.117339 -3.319207 -1.942764
v 0.117339 -3.084529 -1.942764
v -0.117339 -5.384372 1.942764
v -0.117339 -5.149694 1.942764
v -0.117339 -5.384372 -1.942764
v -0.117339 -5.149694 -1.942764
v 0.117339 -5.384372 1.942764
v 0.117339 -5.149694 1.942764
v 0.117339 -5.384372 -1.942764
v 0.117339 -5.149694 -1.942764
v -0.117339 -7.449538 1.942764
v -0.117339 -7.214860 1.942764
v -0.117339 -7.449538 -1.942764
v -0.117339 -7.214860 -1.942764
v 0.117339 -7.449538 1.942764
v 0.117339 -7.214860 1.942764
v 0.117339 -7.449538 -1.942764
v 0.117339 -7.214860 -1.942764
vn -0.5774 -0.5774 0.5774
vn -0.5774 -0.5774 -0.5774
vn 0.5774 -0.5774 -0.5774
vn 0.5774 -0.5774 0.5774
vn -0.5834 -0.5723 0.5763
vn -0.5834 -0.5723 -0.5763
vn 0.5848 -0.5710 -0.5761
vn 0.5848 -0.5710 0.5761
vn -0.5464 -0.2110 0.8105
vn -0.5464 -0.2110 -0.8105
vn -0.7123 0.0172 -0.7017
vn -0.7123 0.0172 0.7017
vn 0.7103 0.3079 -0.6330
vn 0.7106 0.0116 -0.7035
vn 0.7103 0.3079 0.6330
vn 0.7106 0.0116 0.7035
vn -0.7071 -0.0000 0.7071
vn -0.7071 -0.0000 -0.7071
vn 0.7071 -0.0000 -0.7071
vn 0.7071 -0.0000 0.7071
vn -0.2275 -0.5491 -0.8042
vn 0.2971 0.7173 -0.6303
vn 0.2971 0.7173 0.6303
vn -0.2275 -0.5491 0.8042
vn 0.2275 -0.5491 0.8042
vn 0.2275 -0.5491 -0.8042
vn -0.2971 0.7173 -0.6303
vn -0.2971 0.7173 0.6303
vn 0.5478 -0.2193 0.8073
vn 0.5478 -0.2193 -0.8073
vn -0.7132 0.3035 -0.6319
vn -0.7132 0.3035 0.6319
vn -0.5774 0.5774 0.5774
vn -0.5774 0.5774 -0.5774
vn 0.5774 0.5774 -0.5774
vn 0.5774 0.5774 0.5774
vt 0.883066 0.888099
vt 0.841015 0.888099
vt 0.841015 0.846048
vt 0.883066 0.846048
vt 0.883066 0.930149
vt 0.841015 0.930149
vt 0.841015 0.888099
vt 0.883066 0.888099
vt 0.915899 0.951178
vt 0.915899 0.909127
vt 0.948981 0.909127
vt 0.948981 0.951178
vt 0.444404 0.495612
vt 0.432200 0.455371
vt 0.481279 0.458600
vt 0.477155 0.500448
vt 0.378457 0.895219
vt 0.336406 0.895219
vt 0.336406 0.846048
vt 0.378457 0.846048
vt 0.530359 0.455371
vt 0.518154 0.495612
vt 0.485403 0.500448
vt 0.481279 0.458600
vt 0.672812 0.846048
vt 0.714863 0.846048
vt 0.714863 0.953154
vt 0.672812 0.953154
vt 0.420508 0.846048
vt 0.462558 0.846048
vt 0.462558 0.953159
vt 0.420508 0.953159
vt 0.630761 0.953155
vt 0.588711 0.953155
vt 0.588711 0.846048
vt 0.630761 0.846048
vt 0.462558 0.846048
vt 0.504609 0.846048
vt 0.504609 0.953159
vt 0.398295 0.533449
vt 0.361210 0.513624
vt 0.378457 0.960715
vt 0.336406 0.960715
vt 0.601348 0.513624
vt 0.564264 0.533449
vt 0.928515 0.042177
vt 0.886464 0.042177
vt 0.886464 -0.000000
vt 0.928515 -0.000000
vt 0.915899 0.497548
vt 0.957949 0.497548
vt 0.957949 0.718279
vt 0.915899 0.718279
vt 0.376647 0.753116
vt 0.336406 0.765320
vt 0.928515 0.000000
vt 0.970565 0.000000
vt 0.970565 0.252915
vt 0.928515 0.252915
vt 0.626152 0.765320
vt 0.585912 0.753116
vt 0.957949 0.760455
vt 0.915899 0.760455
vt 0.414484 0.799225
vt 0.394659 0.836310
vt 0.928515 0.370690
vt 0.886464 0.370690
vt 0.886464 0.305084
vt 0.928515 0.305084
vt 0.567900 0.836310
vt 0.548075 0.799225
vt 0.756914 0.846048
vt 0.798964 0.846048
vt 0.798964 0.913020
vt 0.756914 0.913020
vt 0.481279 0.804200
vt 0.477155 0.846048
vt 0.928515 0.453756
vt 0.886464 0.453756
vt 0.485403 0.846048
vt 0.481279 0.804200
vt 0.928515 0.305084
vt 0.886464 0.305084
vt 0.886464 0.262908
vt 0.928515 0.262908
vt 0.798964 0.955071
vt 0.756914 0.955071
vt 0.756914 0.913021
vt 0.798964 0.913021
vt 0.841015 0.955071
vt 0.798964 0.955071
vt 0.841015 0.913021
vt 0.688041 0.533449
vt 0.650957 0.513624
vt 0.721946 0.455371
vt 0.734150 0.495612
vt 0.420508 0.960715
vt 0.420508 0.895219
vt 0.891094 0.513624
vt 0.854010 0.533449
vt 0.807901 0.495612
vt 0.820105 0.455371
vt 0.704230 0.799226
vt 0.684405 0.836310
vt 0.626152 0.765320
vt 0.666393 0.753116
vt 0.957949 0.826062
vt 0.915899 0.826062
vt 0.915899 0.760455
vt 0.957949 0.760455
vt 0.857646 0.836310
vt 0.837821 0.799225
vt 0.875658 0.753116
vt 0.915899 0.765320
vt 0.928515 0.294966
vt 0.928515 0.252915
vt 0.961597 0.252915
vt 0.961597 0.294966
vt 0.771026 0.458600
vt 0.766901 0.500448
vt 0.775150 0.500448
vt 0.771025 0.458600
vt 0.714863 0.846048
vt 0.756914 0.846048
vt 0.756914 0.953154
vt 0.714863 0.953154
vt 0.504609 0.846048
vt 0.546660 0.846048
vt 0.546660 0.953159
vt 0.672812 0.953155
vt 0.672812 0.846048
vt 0.546660 0.846048
vt 0.588711 0.846048
vt 0.588711 0.953159
vt 0.546660 0.953159
vt 0.957949 0.455371
vt 1.000000 0.455371
vt 1.000000 0.708287
vt 0.957949 0.708287
vt 0.798964 0.846048
vt 0.841015 0.846048
vt 0.841015 0.913020
vt 0.798964 0.913020
vt 0.771026 0.804200
vt 0.766901 0.846048
vt 0.957949 0.909127
vt 0.915899 0.909127
vt 0.775150 0.846048
vt 0.771025 0.804200
vt 0.000000 0.000000
vt 0.042051 0.000000
vt 0.042051 0.945610
vt 0.000000 0.945610
vt 0.210254 0.945574
vt 0.168203 0.945574
vt 0.168203 0.000000
vt 0.210254 0.000000
vt 0.042051 0.000000
vt 0.084102 0.000000
vt 0.084102 0.945610
vt 0.042051 0.945610
vt 0.252305 0.000000
vt 0.294355 0.000000
vt 0.294355 0.945558
vt 0.252305 0.945558
vt 0.084102 0.000000
vt 0.126152 0.000000
vt 0.126152 0.945610
vt 0.084102 0.945610
vt 0.252305 0.945574
vt 0.252305 0.000000
vt 0.126152 0.000000
vt 0.168203 0.000000
vt 0.168203 0.945610
vt 0.126153 0.945610
vt 0.336406 0.000000
vt 0.336406 0.945558
vt 0.915899 0.455371
vt 0.957949 0.455371
vt 0.858962 0.455371
vt 0.831460 0.455371
vt 0.831460 0.000000
vt 0.858962 0.000000
vt 0.883066 0.928558
vt 0.883066 0.901055
vt 0.910569 0.901055
vt 0.910569 0.928558
vt 0.611441 0.000000
vt 0.638944 -0.000000
vt 0.638944 0.455371
vt 0.611441 0.455371
vt 0.956018 0.415098
vt 0.956018 0.442602
vt 0.928515 0.442602
vt 0.928515 0.415098
vt 0.363910 0.455371
vt 0.336406 0.455371
vt 0.336406 -0.000000
vt 0.363910 -0.000000
vt 0.363910 -0.000000
vt 0.391413 -0.000000
vt 0.391413 0.455371
vt 0.363910 0.455371
vt 0.803958 0.455371
vt 0.776456 0.455371
vt 0.776456 -0.000000
vt 0.803958 -0.000000
vt 0.956018 0.387595
vt 0.928515 0.387595
vt 0.928515 0.360091
vt 0.956018 0.360091
vt 0.638944 -0.000000
vt 0.666447 -0.000000
vt 0.666447 0.455371
vt 0.638944 0.455371
vt 0.928515 0.387595
vt 0.956018 0.387595
vt 0.956018 0.415098
vt 0.928515 0.415098
vt 0.418917 0.455371
vt 0.391413 0.455371
vt 0.391413 -0.000000
vt 0.418917 -0.000000
vt 0.418917 -0.000000
vt 0.446420 -0.000000
vt 0.446420 0.455371
vt 0.418917 0.455371
vt 0.776456 0.455371
vt 0.748954 0.455371
vt 0.748954 -0.000000
vt 0.776456 -0.000000
vt 0.883066 0.873551
vt 0.910569 0.846048
vt 0.910569 0.873551
vt 0.666446 -0.000000
vt 0.693949 -0.000000
vt 0.693949 0.455371
vt 0.883066 0.901055
vt 0.910569 0.873551
vt 0.910569 0.901055
vt 0.473924 0.455371
vt 0.446420 0.455371
vt 0.446420 -0.000000
vt 0.473924 -0.000000
vt 0.473924 0.000000
vt 0.501427 0.000000
vt 0.501427 0.455371
vt 0.473924 0.455371
vt 0.831460 0.455371
vt 0.803958 0.455371
vt 0.803958 0.000000
vt 0.831460 0.000000
vt 0.910569 0.956062
vt 0.883066 0.956062
vt 0.883066 0.928558
vt 0.910569 0.928558
vt 0.721451 -0.000000
vt 0.748954 -0.000000
vt 0.748954 0.455371
vt 0.721451 0.455371
vt 0.841015 0.930149
vt 0.868519 0.930149
vt 0.868519 0.957653
vt 0.841015 0.957653
vt 0.528931 0.455371
vt 0.501427 0.000000
vt 0.528931 0.000000
vt 0.528931 0.000000
vt 0.556434 0.000000
vt 0.556434 0.455371
vt 0.528931 0.455371
vt 0.886464 0.455371
vt 0.858962 0.455371
vt 0.886464 0.000000
vt 0.956018 0.332588
vt 0.928515 0.332588
vt 0.956018 0.305084
vt 0.721451 -0.000000
vt 0.928515 0.332588
vt 0.956018 0.332588
vt 0.956018 0.360091
vt 0.928515 0.360091
vt 0.583938 0.455371
vt 0.556434 0.000000
vt 0.583938 0.000000
vt 0.583938 0.000000
vt 0.611441 0.000000
s 1
f 1/1/1 2/2/2 3/3/3 4/4/4
f 24/5/5 23/6/6 22/7/7 21/8/8
f 5/9/9 6/10/10 26/11/11 25/12/12
f 6/13/10 7/14/13 27/15/14 26/16/11
f 7/17/13 8/18/15 28/19/16 27/20/14
f 8/21/15 5/22/9 25/23/12 28/24/16
f 29/25/17 30/26/18 2/27/2 1/28/1
f 30/29/18 31/30/19 3/31/3 2/32/2
f 31/33/19 32/34/20 4/35/4 3/36/3
f 32/37/20 29/38/17 1/39/1 4/31/4
f 10/40/21 11/41/22 7/14/13 6/13/10
f 11/42/22 12/43/23 8/18/15 7/17/13
f 12/44/23 9/45/24 5/22/9 8/21/15
f 45/46/24 46/47/21 42/48/10 41/49/9
f 10/50/21 9/51/24 13/52/25 14/53/26
f 11/41/22 10/40/21 14/54/26 15/55/27
f 12/56/23 11/57/22 15/58/27 16/59/28
f 9/45/24 12/44/23 16/60/28 13/61/25
f 17/62/29 18/63/30 14/53/26 13/52/25
f 18/64/30 19/65/31 15/55/27 14/54/26
f 19/66/31 20/67/32 16/68/28 15/69/27
f 20/70/32 17/71/29 13/61/25 16/60/28
f 21/72/8 22/73/7 18/74/30 17/75/29
f 22/76/7 23/77/6 19/65/31 18/64/30
f 23/78/6 24/79/5 20/67/32 19/66/31
f 24/80/5 21/81/8 17/71/29 20/70/32
f 53/82/29 54/83/30 50/84/26 49/85/25
f 33/86/1 34/87/2 35/88/3 36/89/4
f 40/90/5 39/91/6 38/89/7 37/92/8
f 46/93/21 47/94/22 43/95/13 42/96/10
f 47/97/22 48/42/23 44/17/15 43/98/13
f 48/99/23 45/100/24 41/101/9 44/102/15
f 54/103/30 55/104/31 51/105/27 50/106/26
f 55/107/31 56/108/32 52/109/28 51/110/27
f 56/111/32 53/112/29 49/113/25 52/114/28
f 41/115/9 42/116/10 58/117/11 57/118/12
f 42/96/10 43/95/13 59/119/14 58/120/11
f 43/98/13 44/17/15 60/20/16 59/29/14
f 44/102/15 41/101/9 57/121/12 60/122/16
f 61/123/17 62/124/18 34/125/2 33/126/1
f 62/127/18 63/128/19 35/129/3 34/39/2
f 63/130/19 64/33/20 36/36/4 35/131/3
f 64/132/20 61/133/17 33/134/1 36/135/4
f 46/47/21 45/46/24 49/85/25 50/84/26
f 47/94/22 46/93/21 50/106/26 51/105/27
f 48/136/23 47/137/22 51/138/27 52/139/28
f 45/100/24 48/99/23 52/114/28 49/113/25
f 37/140/8 38/141/7 54/142/30 53/143/29
f 38/144/7 39/145/6 55/104/31 54/103/30
f 39/146/6 40/147/5 56/108/32 55/107/31
f 40/148/5 37/149/8 53/112/29 56/111/32
f 60/150/16 57/151/12 61/152/17 64/153/20
f 59/154/14 60/155/16 64/156/20 63/157/19
f 58/158/11 59/159/14 63/160/19 62/161/18
f 57/162/12 58/163/11 62/164/18 61/165/17
f 26/166/11 27/167/14 31/168/19 30/169/18
f 27/170/14 28/154/16 32/157/20 31/171/19
f 28/172/16 25/173/12 29/174/17 32/175/20
f 25/163/12 26/176/11 30/177/18 29/164/17
f 9/51/24 10/50/21 6/178/10 5/179/9
f 65/180/1 66/181/33 68/182/34 67/183/2
f 67/184/2 68/185/34 72/186/35 71/187/3
f 71/188/3 72/189/35 70/190/36 69/191/4
f 69/192/4 70/193/36 66/194/33 65/195/1
f 67/196/2 71/197/3 69/198/4 65/199/1
f 72/200/35 68/201/34 66/202/33 70/203/36
f 73/204/1 74/205/33 76/206/34 75/207/2
f 75/208/2 76/209/34 80/210/35 79/211/3
f 79/212/3 80/213/35 78/214/36 77/215/4
f 77/216/4 78/217/36 74/218/33 73/219/1
f 75/220/2 79/221/3 77/222/4 73/223/1
f 80/224/35 76/225/34 74/226/33 78/227/36
f 81/228/1 82/229/33 84/230/34 83/231/2
f 83/232/2 84/4/34 88/233/35 87/234/3
f 87/235/3 88/236/35 86/237/36 85/214/4
f 85/238/4 86/232/36 82/239/33 81/240/1
f 83/241/2 87/242/3 85/243/4 81/244/1
f 88/245/35 84/246/34 82/247/33 86/248/36
f 89/249/1 90/250/33 92/251/34 91/252/2
f 91/253/2 92/254/34 96/255/35 95/256/3
f 95/257/3 96/258/35 94/259/36 93/260/4
f 93/261/4 94/262/36 90/263/33 89/264/1
f 91/265/2 95/247/3 93/266/4 89/267/1
f 96/268/35 92/269/34 90/270/33 94/271/36
f 97/272/1 98/273/33 100/183/34 99/274/2
f 99/275/2 100/276/34 104/69/35 103/277/3
f 103/236/3 104/278/35 102/260/36 101/237/4
f 101/279/4 102/280/36 98/281/33 97/282/1
f 99/283/2 103/270/3 101/284/4 97/285/1
f 104/286/35 100/287/34 98/191/33 102/283/36
