# Blender 3.6.4
# www.blender.org
mtllib manhole_Low.mtl
o Low
v 0.614982 0.092868 -0.614982
v 0.666667 -0.092868 -0.666667
v 0.614982 0.092868 0.614982
v 0.666667 -0.092868 0.666667
v -0.614982 0.092868 -0.614982
v -0.666667 -0.092868 -0.666667
v -0.614982 0.092868 0.614982
v -0.666667 -0.092868 0.666667
v 0.666667 0.092868 0.666667
v -0.666667 0.092868 0.666667
v 0.666667 0.092868 -0.666667
v -0.666667 0.092868 -0.666667
v 0.614982 0.074145 0.614982
v -0.614982 0.074145 0.614982
v 0.614982 0.074145 -0.614982
v -0.614982 0.074145 -0.614982
v -0.854167 -0.092868 -0.364583
v -0.916667 -0.092868 0.000000
v -0.854167 -0.092868 0.364583
v 0.364583 -0.092868 -0.854167
v 0.000000 -0.092868 -0.916667
v -0.364583 -0.092868 -0.854167
v 0.364583 0.092868 0.854167
v 0.000000 0.092868 0.916667
v -0.364583 0.092868 0.854167
v 0.854167 0.092868 -0.364583
v 0.916667 0.092868 0.000000
v 0.854167 0.092868 0.364583
v -0.364583 -0.092868 0.854167
v 0.000000 -0.092868 0.916667
v 0.364583 -0.092868 0.854167
v -0.854167 0.092868 0.364583
v -0.916667 0.092868 0.000000
v -0.854167 0.092868 -0.364583
v -0.364583 0.092868 -0.854167
v 0.000000 0.092868 -0.916667
v 0.364583 0.092868 -0.854167
v 0.854167 -0.092868 0.364583
v 0.916667 -0.092868 0.000000
v 0.854167 -0.092868 -0.364583
v 0.336318 0.092868 0.787945
v 0.000000 0.092868 0.845600
v -0.336318 0.092868 0.787945
v 0.787945 0.092868 -0.336318
v 0.845600 0.092868 0.000000
v 0.787945 0.092868 0.336318
v -0.787945 0.092868 0.336318
v -0.845600 0.092868 0.000000
v -0.787945 0.092868 -0.336318
v -0.336318 0.092868 -0.787945
v 0.000000 0.092868 -0.845600
v 0.336318 0.092868 -0.787945
v 0.336318 0.074145 0.787945
v 0.000000 0.074145 0.845600
v -0.336318 0.074145 0.787945
v 0.787945 0.074145 -0.336318
v 0.845600 0.074145 0.000000
v 0.787945 0.074145 0.336318
v -0.787945 0.074145 0.336318
v -0.845600 0.074145 -0.000000
v -0.787945 0.074145 -0.336318
v -0.336318 0.074145 -0.787945
v 0.000000 0.074145 -0.845600
v 0.336318 0.074145 -0.787945
v 0.397176 0.074145 -0.397176
v 0.000000 0.074145 -0.422800
v -0.397176 0.074145 -0.397176
v 0.422800 0.074145 0.000000
v 0.000000 0.074145 0.000000
v -0.422800 0.074145 -0.000000
v 0.397176 0.074145 0.397176
v 0.000000 0.074145 0.422800
v -0.397176 0.074145 0.397176
v 0.666667 -0.039150 -0.666667
v 0.666667 0.039150 -0.666667
v -0.666667 0.039150 0.666667
v -0.666667 -0.039150 0.666667
v 0.666667 -0.039150 0.666667
v 0.666667 0.039150 0.666667
v -0.666667 0.039150 -0.666667
v -0.666667 -0.039150 -0.666667
v 0.364583 -0.039150 0.854167
v 0.364583 0.039150 0.854167
v 0.000000 0.039150 0.916667
v 0.000000 -0.039150 0.916667
v -0.364583 0.039150 0.854167
v -0.364583 -0.039150 0.854167
v -0.854167 -0.039150 0.364583
v -0.854167 0.039150 0.364583
v -0.916667 0.039150 0.000000
v -0.916667 -0.039150 0.000000
v -0.854167 0.039150 -0.364583
v -0.854167 -0.039150 -0.364583
v 0.854167 -0.039150 -0.364583
v 0.854167 0.039150 -0.364583
v 0.916667 0.039150 0.000000
v 0.916667 -0.039150 0.000000
v 0.854167 0.039150 0.364583
v 0.854167 -0.039150 0.364583
v -0.364583 -0.039150 -0.854167
v -0.364583 0.039150 -0.854167
v 0.000000 0.039150 -0.916667
v 0.000000 -0.039150 -0.916667
v 0.364583 0.039150 -0.854167
v 0.364583 -0.039150 -0.854167
vn -0.0556 0.9969 -0.0556
vn -0.0745 0.9944 -0.0745
vn -0.0367 0.9946 -0.0966
vn -0.0287 0.9967 -0.0757
vn -0.0000 0.9948 -0.1021
vn -0.0000 0.9966 -0.0823
vn 0.0745 0.9944 -0.0745
vn 0.0556 0.9969 -0.0556
vn 0.0287 0.9967 -0.0757
vn 0.0367 0.9946 -0.0966
vn -0.0000 -0.0000 1.0000
vn -0.0000 0.9948 0.1021
vn -0.0367 0.9946 0.0966
vn -0.3547 -0.0000 0.9350
vn 0.0367 0.9946 0.0966
vn 0.3547 -0.0000 0.9350
vn -0.9350 -0.0000 0.3547
vn -0.0966 0.9946 0.0367
vn -0.1021 0.9948 -0.0000
vn -1.0000 -0.0000 -0.0000
vn -0.3547 -0.0000 -0.9350
vn -0.7071 -0.0000 -0.7071
vn 0.9350 -0.0000 0.3547
vn 0.7071 -0.0000 0.7071
vn 0.0966 0.9946 0.0367
vn 0.0745 0.9944 0.0745
vn -0.7071 -0.0000 0.7071
vn -0.0745 0.9944 0.0745
vn -0.0966 0.9946 -0.0367
vn -0.9350 -0.0000 -0.3547
vn 0.9350 -0.0000 -0.3547
vn 0.0966 0.9946 -0.0367
vn 0.1021 0.9948 -0.0000
vn 1.0000 -0.0000 -0.0000
vn -0.0000 -0.0000 -1.0000
vn 0.3547 -0.0000 -0.9350
vn 0.7071 -0.0000 -0.7071
vn -0.0757 0.9967 -0.0287
vn -0.0823 0.9966 -0.0000
vn -0.0757 0.9967 0.0287
vn -0.0556 0.9969 0.0556
vn 0.0757 0.9967 0.0287
vn 0.0823 0.9966 -0.0000
vn 0.0757 0.9967 -0.0287
vn 0.0556 0.9969 0.0556
vn -0.0287 0.9967 0.0757
vn -0.0000 0.9966 0.0823
vn 0.0287 0.9967 0.0757
vn -0.0000 1.0000 -0.0000
vt 0.176130 0.288412
vt 0.204290 0.316015
vt 0.164313 0.435267
vt 0.115477 0.423520
vt 0.170861 0.566258
vt 0.117496 0.575072
vt 0.309076 0.777337
vt 0.285690 0.815427
vt 0.181942 0.711496
vt 0.217894 0.690571
vt 0.052344 0.579542
vt 0.088244 0.581780
vt 0.156151 0.730588
vt 0.118878 0.743513
vt 0.083673 0.416134
vt 0.000108 0.407447
vt 0.012443 0.409943
vt 0.019443 0.601617
vt 0.000099 0.600758
vt 0.401367 0.934734
vt 0.416503 0.893654
vt 0.575976 0.891829
vt 0.578628 0.925701
vt 0.098180 0.775860
vt 0.075717 0.782985
vt 0.831082 0.716457
vt 0.894319 0.572980
vt 0.922733 0.579863
vt 0.863559 0.740301
vt 0.192743 0.078562
vt 0.206486 0.107028
vt 0.084439 0.242241
vt 0.052603 0.219568
vt 0.239596 0.124180
vt 0.259179 0.158137
vt 0.148015 0.269403
vt 0.115301 0.243683
vt 0.239867 0.866289
vt 0.267698 0.844162
vt 0.725193 0.830441
vt 0.740253 0.860954
vt 0.389129 0.996509
vt 0.402664 0.970246
vt 0.595371 0.966474
vt 0.595001 0.999901
vt 0.574965 0.055070
vt 0.571313 0.097212
vt 0.409204 0.094867
vt 0.401271 0.061165
vt 0.771220 0.886779
vt 0.788737 0.920710
vt 0.231152 0.902310
vt 0.210759 0.919154
vt 0.895537 0.750582
vt 0.968698 0.580719
vt 0.987662 0.582532
vt 0.933757 0.775771
vt 0.575159 0.000099
vt 0.572042 0.016595
vt 0.379626 0.025692
vt 0.378771 0.000645
vt 0.889611 0.410740
vt 0.926221 0.405624
vt 0.908974 0.194914
vt 0.878655 0.211416
vt 0.741768 0.088378
vt 0.765843 0.052824
vt 0.055455 0.404692
vt 0.827500 0.262605
vt 0.860874 0.240520
vt 0.960575 0.386503
vt 0.987662 0.383638
vt 0.716961 0.152829
vt 0.738543 0.114820
vt 0.277822 0.183677
vt 0.414980 0.124546
vt 0.564205 0.128158
vt 0.698958 0.180606
vt 0.706457 0.805471
vt 0.569982 0.862429
vt 0.422574 0.863371
vt 0.802961 0.697945
vt 0.802221 0.281085
vt 0.860678 0.416977
vt 0.863087 0.565765
vt 0.822444 0.557912
vt 0.815913 0.422210
vt 0.760354 0.300421
vt 0.607670 0.311169
vt 0.652679 0.460219
vt 0.490880 0.496127
vt 0.454427 0.333864
vt 0.677139 0.615097
vt 0.526242 0.658613
vt 0.329837 0.531564
vt 0.305786 0.378658
vt 0.372523 0.679639
vt 0.671366 0.213212
vt 0.553867 0.163476
vt 0.780901 0.682166
vt 0.684597 0.768571
vt 0.561394 0.826129
vt 0.425007 0.824043
vt 0.293464 0.224916
vt 0.416865 0.169331
s 1
usemtl Material
f 3/1/1 13/2/2 53/3/3 41/4/4
f 41/4/4 53/3/3 54/5/5 42/6/6
f 14/7/7 7/8/8 43/9/9 55/10/10
f 84/11/11 24/12/12 25/13/13 86/14/14
f 42/6/6 24/12/12 23/15/15 41/4/4
f 31/16/16 82/17/16 85/18/11 30/19/11
f 89/20/17 32/21/18 33/22/19 90/23/20
f 30/19/11 85/18/11 87/24/14 29/25/14
f 12/26/2 35/27/3 101/28/21 80/29/22
f 38/30/23 99/31/23 78/32/24 4/33/24
f 98/34/23 28/35/25 9/36/26 79/37/24
f 76/38/27 10/39/28 32/21/18 89/20/17
f 90/23/20 33/22/19 34/40/29 92/41/30
f 19/42/17 88/43/17 91/44/20 18/45/20
f 95/46/31 26/47/32 27/48/33 96/49/34
f 18/45/20 91/44/20 93/50/30 17/51/30
f 29/25/14 87/24/14 77/52/27 8/53/27
f 86/14/14 25/13/13 10/39/28 76/38/27
f 81/54/22 100/55/21 22/56/21 6/57/22
f 92/41/30 34/40/29 12/26/2 80/29/22
f 96/49/34 27/48/33 28/35/25 98/34/23
f 40/58/31 94/59/31 97/60/34 39/61/34
f 101/28/21 35/27/3 36/62/5 102/63/35
f 39/61/34 97/60/34 99/31/23 38/30/23
f 8/53/27 77/52/27 88/43/17 19/42/17
f 20/64/36 105/65/36 74/66/37 2/67/37
f 9/36/26 23/15/15 83/68/16 79/37/24
f 78/32/24 82/17/16 31/16/16 4/33/24
f 102/63/35 36/62/5 37/69/10 104/70/36
f 22/56/21 100/55/21 103/71/35 21/72/35
f 21/72/35 103/71/35 105/65/36 20/64/36
f 83/68/16 23/15/15 24/12/12 84/11/11
f 17/51/30 93/50/30 81/54/22 6/57/22
f 11/73/7 26/47/32 95/46/31 75/74/37
f 74/66/37 94/59/31 40/58/31 2/67/37
f 43/9/9 25/13/13 24/12/12 42/6/6
f 7/8/8 10/39/28 25/13/13 43/9/9
f 9/36/26 3/1/1 41/4/4 23/15/15
f 46/75/38 28/35/25 27/48/33 45/76/39
f 45/76/39 27/48/33 26/47/32 44/77/40
f 9/36/26 28/35/25 46/75/38 3/1/1
f 11/73/7 1/78/41 44/77/40 26/47/32
f 49/79/42 34/40/29 33/22/19 48/80/43
f 48/80/43 33/22/19 32/21/18 47/81/44
f 5/82/45 12/26/2 34/40/29 49/79/42
f 7/8/8 47/81/44 32/21/18 10/39/28
f 52/83/46 37/69/10 36/62/5 51/84/47
f 51/84/47 36/62/5 35/27/3 50/85/48
f 11/73/7 37/69/10 52/83/46 1/78/41
f 5/82/45 50/85/48 35/27/3 12/26/2
f 50/85/48 62/86/15 63/87/12 51/84/47
f 51/84/47 63/87/12 64/88/13 52/83/46
f 65/89/49 66/90/49 69/91/49 68/92/49
f 66/90/49 67/93/49 70/94/49 69/91/49
f 68/92/49 69/91/49 72/95/49 71/96/49
f 69/91/49 70/94/49 73/97/49 72/95/49
f 15/98/28 64/88/13 65/89/49 56/99/18
f 64/88/13 63/87/12 66/90/49 65/89/49
f 63/87/12 62/86/15 67/93/49 66/90/49
f 62/86/15 16/100/26 61/101/25 67/93/49
f 67/93/49 61/101/25 60/102/33 70/94/49
f 70/94/49 60/102/33 59/103/32 73/97/49
f 73/97/49 59/103/32 14/7/7 55/10/10
f 72/95/49 73/97/49 55/10/10 54/5/5
f 71/96/49 72/95/49 54/5/5 53/3/3
f 58/104/29 71/96/49 53/3/3 13/2/2
f 57/105/19 68/92/49 71/96/49 58/104/29
f 56/99/18 65/89/49 68/92/49 57/105/19
f 5/82/45 16/100/26 62/86/15 50/85/48
f 15/98/28 1/78/41 52/83/46 64/88/13
f 44/77/40 56/99/18 57/105/19 45/76/39
f 45/76/39 57/105/19 58/104/29 46/75/38
f 15/98/28 56/99/18 44/77/40 1/78/41
f 3/1/1 46/75/38 58/104/29 13/2/2
f 47/81/44 59/103/32 60/102/33 48/80/43
f 48/80/43 60/102/33 61/101/25 49/79/42
f 14/7/7 59/103/32 47/81/44 7/8/8
f 5/82/45 49/79/42 61/101/25 16/100/26
f 43/9/9 42/6/6 54/5/5 55/10/10
f 83/68/16 84/11/11 85/18/11 82/17/16
f 84/11/11 86/14/14 87/24/14 85/18/11
f 79/37/24 83/68/16 82/17/16 78/32/24
f 77/52/27 87/24/14 86/14/14 76/38/27
f 89/20/17 90/23/20 91/44/20 88/43/17
f 90/23/20 92/41/30 93/50/30 91/44/20
f 76/38/27 89/20/17 88/43/17 77/52/27
f 81/54/22 93/50/30 92/41/30 80/29/22
f 95/46/31 96/49/34 97/60/34 94/59/31
f 96/49/34 98/34/23 99/31/23 97/60/34
f 75/74/37 95/46/31 94/59/31 74/66/37
f 78/32/24 99/31/23 98/34/23 79/37/24
f 101/28/21 102/63/35 103/71/35 100/55/21
f 102/63/35 104/70/36 105/65/36 103/71/35
f 80/29/22 101/28/21 100/55/21 81/54/22
f 74/66/37 105/65/36 104/70/36 75/74/37
f 104/70/36 37/69/10 11/73/7 75/74/37
