# Blender 3.6.4
# www.blender.org
mtllib Panel_Low.mtl
o Low
v 0.000000 1.000000 -1.817800
v 0.000000 -1.000000 -1.817800
v 0.000000 1.000000 1.817800
v 0.000000 -1.000000 1.817800
v 0.061319 0.888889 -1.868058
v 0.000000 0.777778 -1.817800
v 0.061319 0.666667 -1.868058
v 0.000000 0.555556 -1.817800
v 0.061319 0.444444 -1.868058
v 0.000000 0.333333 -1.817800
v 0.061319 0.222222 -1.868058
v 0.000000 0.111111 -1.817800
v 0.061319 0.000000 -1.868058
v 0.000000 -0.111111 -1.817800
v 0.061319 -0.222222 -1.868058
v 0.000000 -0.333333 -1.817800
v 0.061319 -0.444444 -1.868058
v 0.000000 -0.555556 -1.817800
v 0.061319 -0.666667 -1.868058
v 0.000000 -0.777778 -1.817800
v 0.061319 -0.888889 -1.868058
v 0.061319 0.888889 1.868058
v 0.000000 0.777778 1.817800
v 0.061319 0.666667 1.868058
v 0.000000 0.555556 1.817800
v 0.061319 0.444444 1.868058
v 0.000000 0.333333 1.817800
v 0.061319 0.222222 1.868058
v 0.000000 0.111111 1.817800
v 0.061319 0.000000 1.868058
v 0.000000 -0.111111 1.817800
v 0.061319 -0.222222 1.868058
v 0.000000 -0.333333 1.817800
v 0.061319 -0.444444 1.868058
v 0.000000 -0.555556 1.817800
v 0.061319 -0.666667 1.868058
v 0.000000 -0.777778 1.817800
v 0.061319 -0.888889 1.868058
vn 0.8755 0.4832 -0.0000
vn 0.8755 -0.4832 -0.0000
vt 0.829713 0.007542
vt 0.870927 0.007542
vt 0.870927 0.992458
vt 0.829713 0.992458
vt 0.129073 0.007542
vt 0.170287 0.007542
vt 0.170287 0.992458
vt 0.129073 0.992458
vt 0.211501 0.007542
vt 0.211501 0.992458
vt 0.252715 0.007542
vt 0.252715 0.992458
vt 0.293929 0.007542
vt 0.293929 0.992458
vt 0.335143 0.007542
vt 0.335143 0.992457
vt 0.376358 0.007542
vt 0.376358 0.992457
vt 0.417572 0.007542
vt 0.417572 0.992457
vt 0.458786 0.007542
vt 0.458786 0.992457
vt 0.500000 0.007542
vt 0.500000 0.992457
vt 0.541214 0.007542
vt 0.541214 0.992457
vt 0.582428 0.007542
vt 0.582428 0.992458
vt 0.623643 0.007542
vt 0.623643 0.992458
vt 0.664857 0.007542
vt 0.664857 0.992458
vt 0.706071 0.007542
vt 0.706071 0.992458
vt 0.747285 0.007542
vt 0.747285 0.992458
vt 0.788499 0.007542
vt 0.788499 0.992458
s 0
usemtl Material
f 5/1/1 1/2/1 3/3/1 22/4/1
f 2/5/2 21/6/2 38/7/2 4/8/2
f 21/6/1 20/9/1 37/10/1 38/7/1
f 20/9/2 19/11/2 36/12/2 37/10/2
f 19/11/1 18/13/1 35/14/1 36/12/1
f 18/13/2 17/15/2 34/16/2 35/14/2
f 17/15/1 16/17/1 33/18/1 34/16/1
f 16/17/2 15/19/2 32/20/2 33/18/2
f 15/19/1 14/21/1 31/22/1 32/20/1
f 14/21/2 13/23/2 30/24/2 31/22/2
f 13/23/1 12/25/1 29/26/1 30/24/1
f 12/25/2 11/27/2 28/28/2 29/26/2
f 11/27/1 10/29/1 27/30/1 28/28/1
f 10/29/2 9/31/2 26/32/2 27/30/2
f 9/31/1 8/33/1 25/34/1 26/32/1
f 8/33/2 7/35/2 24/36/2 25/34/2
f 7/35/1 6/37/1 23/38/1 24/36/1
f 6/37/2 5/1/2 22/4/2 23/38/2
