# Blender 3.6.4
# www.blender.org
mtllib Pipe_curved_Low.mtl
o Pipe_Low
v -0.313441 0.628560 -0.617274
v -0.313441 0.118958 -0.617274
v -0.313441 0.988903 -0.255684
v -0.313441 0.988903 0.255684
v -0.313441 0.628560 0.617276
v -0.313441 0.118959 0.617276
v -0.313441 -0.241383 0.255684
v -0.313441 -0.241383 -0.255684
v -0.549906 0.710359 -0.815441
v -0.549906 1.186385 -0.337767
v 0.823208 0.625573 -0.617620
v -0.549906 1.186385 0.337767
v -0.549906 0.710359 0.815441
v 0.313111 0.115548 -0.617717
v -0.549906 0.037161 0.815441
v -0.549906 0.037159 -0.815441
v 1.185199 0.987520 -0.255807
v -0.549906 -0.438865 0.337767
v -0.549906 -0.438865 -0.337767
v 1.185199 0.987520 0.255806
v -0.313441 -0.438865 -0.337767
v -0.313441 -0.438865 0.337767
v 0.823208 0.625573 0.617619
v -0.313441 0.037161 0.815441
v -0.313441 0.710359 0.815441
v 0.313111 0.115546 0.617719
v -0.313441 1.186385 0.337767
v -0.313441 1.186385 -0.337767
v -0.046370 -0.243720 0.255910
v -0.313441 0.037159 -0.815441
v -0.313441 0.710359 -0.815441
v -0.046370 -0.243722 -0.255911
v 0.350796 -1.492521 -0.620905
v 0.865030 -1.492521 -0.621012
v 1.228772 -1.492521 -0.257254
v 1.228772 -1.492521 0.257253
v 0.865030 -1.492521 0.621011
v 0.350797 -1.492521 0.620907
v -0.012593 -1.492522 0.257138
v -0.012593 -1.492522 -0.257138
vn 0.6461 0.6557 0.3907
vn 0.6461 0.6557 -0.3907
vn 0.8043 0.5490 -0.2272
vn 0.8043 0.5490 0.2272
vn 0.2959 0.3049 0.9052
vn 0.8044 0.2279 0.5486
vn -0.1133 -0.1126 0.9872
vn 0.8036 -0.2273 0.5501
vn -0.5757 -0.5886 0.5675
vn 0.8018 -0.5520 0.2288
vn -0.5757 -0.5886 -0.5675
vn 0.8018 -0.5520 -0.2288
vn -0.1133 -0.1126 -0.9872
vn 0.8036 -0.2273 -0.5501
vn -0.3762 -0.0079 0.9265
vn 0.3839 0.0085 0.9233
vn -0.9218 -0.0236 -0.3870
vn -0.9218 -0.0236 0.3870
vn 0.9234 0.0170 0.3835
vn 0.9234 0.0170 -0.3835
vn -0.3762 -0.0079 -0.9265
vn 0.6301 -0.2978 0.7171
vn 0.6304 -0.7174 0.2964
vn 0.2959 0.3049 -0.9052
vn 0.8044 0.2279 -0.5486
vn 0.6301 0.2978 0.7171
vn 0.6304 0.7174 0.2964
vn -0.0000 0.9242 0.3819
vn -0.0000 0.3835 0.9235
vn 0.3839 0.0085 -0.9233
vn -0.0000 -0.3835 0.9235
vn -0.0000 -0.9242 0.3819
vn 0.6304 0.7174 -0.2964
vn -0.0000 0.9242 -0.3819
vn 0.6301 -0.2978 -0.7171
vn 0.6304 -0.7174 -0.2964
vn -0.0000 -0.9242 -0.3819
vn -0.0000 -0.3835 -0.9235
vn 0.6301 0.2978 -0.7171
vn -0.0000 0.3835 -0.9235
vt 0.488663 0.450258
vt 0.387948 0.450258
vt 0.387948 0.187376
vt 0.488663 0.187376
vt 0.596276 0.450258
vt 0.596276 0.187376
vt 0.721427 0.450258
vt 0.721427 0.187376
vt 0.835908 0.450258
vt 0.835908 0.187376
vt 0.913440 0.450258
vt 0.913440 0.187376
vt 0.177196 0.450258
vt 0.103485 0.450258
vt 0.103485 0.187376
vt 0.177196 0.187376
vt 0.721427 0.727312
vt 0.596276 0.727312
vt 0.913440 0.727312
vt 0.835908 0.727312
vt 0.488663 0.727312
vt 0.387948 0.727312
vt 0.177196 0.727312
vt 0.103485 0.727312
vt 0.721427 0.148576
vt 0.835908 0.148576
vt 0.286341 0.450258
vt 0.286341 0.187376
vt 0.596276 0.148576
vt 0.488663 0.148576
vt 0.488663 0.102001
vt 0.596276 0.102001
vt 0.286341 0.727312
vt 0.721427 0.102001
vt 0.835908 0.102001
vt 0.387948 0.148576
vt 0.387948 0.102001
vt 0.177196 0.148576
vt 0.037872 0.148576
vt 0.037872 0.102001
vt 0.177196 0.102001
vt 0.286341 0.148576
vt 0.286341 0.102001
vt 0.986465 0.148576
vt 0.987454 0.102001
s 1
usemtl Pipe
f 20/1/1 17/2/2 3/3/3 4/4/4
f 23/5/5 20/1/1 4/4/4 5/6/6
f 26/7/7 23/5/5 5/6/6 6/8/8
f 29/9/9 26/7/7 6/8/8 7/10/10
f 32/11/11 29/9/9 7/10/10 8/12/12
f 14/13/13 32/14/11 8/15/12 2/16/14
f 23/5/5 26/7/7 38/17/15 37/18/16
f 29/9/9 32/11/11 40/19/17 39/20/18
f 17/2/2 20/1/1 36/21/19 35/22/20
f 20/1/1 23/5/5 37/18/16 36/21/19
f 32/14/11 14/13/13 33/23/21 40/24/17
f 26/7/7 29/9/9 39/20/18 38/17/15
f 7/10/10 6/8/8 24/25/22 22/26/23
f 17/2/2 11/27/24 1/28/25 3/3/3
f 25/29/26 27/30/27 12/31/28 13/32/29
f 14/13/13 2/16/14 1/28/25 11/27/24
f 11/27/24 17/2/2 35/22/20 34/33/30
f 22/26/23 24/25/22 15/34/31 18/35/32
f 27/30/27 28/36/33 10/37/34 12/31/28
f 30/38/35 21/39/36 19/40/37 16/41/38
f 24/25/22 25/29/26 13/32/29 15/34/31
f 28/36/33 31/42/39 9/43/40 10/37/34
f 21/44/36 22/26/23 18/35/32 19/45/37
f 2/16/14 8/15/12 21/39/36 30/38/35
f 1/28/25 2/16/14 30/38/35 31/42/39
f 4/4/4 3/3/3 28/36/33 27/30/27
f 6/8/8 5/6/6 25/29/26 24/25/22
f 8/12/12 7/10/10 22/26/23 21/44/36
f 3/3/3 1/28/25 31/42/39 28/36/33
f 5/6/6 4/4/4 27/30/27 25/29/26
f 31/42/39 30/38/35 16/41/38 9/43/40
f 34/33/30 33/23/21 14/13/13 11/27/24
