# Blender 3.6.4
# www.blender.org
mtllib Pipe_end_Low.mtl
o Pipe_end_Low
v -0.257389 -0.721933 -0.621392
v 0.257389 -0.721933 -0.621392
v 0.621392 -0.721933 -0.257389
v 0.621392 -0.721933 0.257389
v 0.257389 -0.721933 0.621391
v -0.257389 -0.721933 0.621391
v -0.621392 -0.721933 0.257389
v -0.621392 -0.721933 -0.257389
v -0.257389 1.669235 -0.621392
v 0.257389 1.669235 -0.621392
v 0.621392 1.669235 -0.257389
v 0.621392 1.669235 0.257389
v 0.257389 1.669235 0.621391
v -0.257389 1.669235 0.621391
v -0.621392 1.669235 0.257389
v -0.621392 1.669235 -0.257389
v -0.305157 -0.721933 -0.736714
v 0.305157 -0.721933 -0.736714
v 0.736714 -0.721933 -0.305156
v 0.736714 -0.721933 0.305158
v 0.305157 -0.721933 0.736714
v -0.305157 -0.721933 0.736714
v -0.736714 -0.721933 0.305158
v -0.736714 -0.721933 -0.305156
v -0.305157 -1.172658 -0.736714
v 0.305157 -1.172658 -0.736714
v 0.736714 -1.172658 -0.305156
v 0.736714 -1.172658 0.305158
v 0.305157 -1.172658 0.736714
v -0.305157 -1.172658 0.736714
v -0.736714 -1.172658 0.305158
v -0.736714 -1.172658 -0.305156
v -0.257389 -0.510352 -0.621392
v -0.257389 1.457657 -0.621392
v 0.257389 1.457657 -0.621392
v 0.257389 -0.510352 -0.621392
v -0.621392 -0.510352 -0.257389
v -0.621392 1.457657 -0.257389
v 0.621392 1.457657 -0.257389
v 0.621392 -0.510352 -0.257389
v 0.621392 1.457657 0.257389
v 0.621392 -0.510352 0.257389
v 0.257389 1.457657 0.621391
v 0.257389 -0.510352 0.621391
v -0.257389 1.457657 0.621391
v -0.257389 -0.510352 0.621391
v -0.621392 1.457657 0.257389
v -0.621392 -0.510352 0.257389
vn -0.3827 -0.0000 -0.9239
vn 0.3827 -0.0000 -0.9239
vn -0.2275 0.8042 0.5491
vn -0.5491 0.8042 0.2275
vn -0.7173 0.6303 0.2971
vn -0.2971 0.6303 0.7173
vn 0.9239 -0.0000 -0.3827
vn -0.9239 -0.0000 0.3827
vn -0.9239 -0.0000 -0.3827
vn -0.3827 -0.0000 0.9239
vn 0.3827 -0.0000 0.9239
vn 0.9239 -0.0000 0.3827
vn 0.7173 0.6303 0.2971
vn 0.2971 0.6303 0.7173
vn 0.5491 0.8042 0.2275
vn 0.2275 0.8042 0.5491
vn -0.5491 0.8042 -0.2275
vn -0.7173 0.6303 -0.2971
vn 0.2275 0.8042 -0.5491
vn 0.5491 0.8042 -0.2275
vn 0.7173 0.6303 -0.2971
vn 0.2971 0.6303 -0.7173
vn -0.2275 0.8042 -0.5491
vn -0.2971 0.6303 -0.7173
vt 0.879912 0.142689
vt 0.938654 0.142689
vt 0.938654 0.253993
vt 0.879912 0.253993
vt 0.250754 0.731833
vt 0.250754 0.847206
vt 0.216406 0.847206
vt 0.216406 0.731833
vt 0.938654 0.369017
vt 0.879912 0.369017
vt 0.879912 0.847206
vt 0.938654 0.847206
vt 0.938654 0.920986
vt 0.879912 0.920986
vt 0.879912 0.731833
vt 0.938654 0.731833
vt 0.879912 0.610333
vt 0.938654 0.610333
vt 0.879912 0.487860
vt 0.938654 0.487860
vt 0.879912 0.083916
vt 0.938654 0.083916
vt 0.216406 0.487860
vt 0.216406 0.610333
vt 0.078808 0.610333
vt 0.078808 0.487860
vt 0.250754 0.487860
vt 0.250754 0.610333
vt 0.250754 0.954827
vt 0.216406 0.952368
vt 0.250754 0.253993
vt 0.250754 0.369017
vt 0.216406 0.369017
vt 0.216406 0.253993
vt 0.250754 0.025445
vt 0.250754 0.142689
vt 0.216406 0.142689
vt 0.216406 0.022013
vt 0.078808 0.369017
vt 0.078808 0.253993
vt 0.078808 0.952368
vt 0.078808 0.847206
vt 0.078808 0.731833
vt 0.078808 0.142689
vt 0.078808 0.022013
vt 0.309682 0.083916
vt 0.309682 0.142689
vt 0.309682 0.369017
vt 0.309682 0.487860
vt 0.309682 0.610333
vt 0.309682 0.731833
vt 0.309682 0.847206
vt 0.309682 0.920986
vt 0.309682 0.253993
s 1
usemtl Pipe
f 34/1/1 9/2/1 10/3/2 35/4/2
f 6/5/3 7/6/4 23/7/5 22/8/6
f 35/4/2 10/3/2 11/9/7 39/10/7
f 47/11/8 15/12/8 16/13/9 38/14/9
f 45/15/10 14/16/10 15/12/8 47/11/8
f 43/17/11 13/18/11 14/16/10 45/15/10
f 41/19/12 12/20/12 13/18/11 43/17/11
f 39/10/7 11/9/7 12/20/12 41/19/12
f 38/21/9 16/22/9 9/2/1 34/1/1
f 20/23/13 21/24/14 29/25/11 28/26/12
f 4/27/15 5/28/16 21/24/14 20/23/13
f 7/6/4 8/29/17 24/30/18 23/7/5
f 2/31/19 3/32/20 19/33/21 18/34/22
f 5/28/16 6/5/3 22/8/6 21/24/14
f 8/35/17 1/36/23 17/37/24 24/38/18
f 1/36/23 2/31/19 18/34/22 17/37/24
f 3/32/20 4/27/15 20/23/13 19/33/21
f 18/34/22 19/33/21 27/39/7 26/40/2
f 23/7/5 24/30/18 32/41/9 31/42/8
f 21/24/14 22/8/6 30/43/10 29/25/11
f 19/33/21 20/23/13 28/26/12 27/39/7
f 17/37/24 18/34/22 26/40/2 25/44/1
f 24/38/18 17/37/24 25/44/1 32/45/9
f 22/8/6 23/7/5 31/42/8 30/43/10
f 8/35/17 37/46/9 33/47/1 1/36/23
f 37/46/9 38/21/9 34/1/1 33/47/1
f 3/32/20 40/48/7 42/49/12 4/27/15
f 40/48/7 39/10/7 41/19/12 42/49/12
f 4/27/15 42/49/12 44/50/11 5/28/16
f 42/49/12 41/19/12 43/17/11 44/50/11
f 5/28/16 44/50/11 46/51/10 6/5/3
f 44/50/11 43/17/11 45/15/10 46/51/10
f 6/5/3 46/51/10 48/52/8 7/6/4
f 46/51/10 45/15/10 47/11/8 48/52/8
f 7/6/4 48/52/8 37/53/9 8/29/17
f 48/52/8 47/11/8 38/14/9 37/53/9
f 2/31/19 36/54/2 40/48/7 3/32/20
f 36/54/2 35/4/2 39/10/7 40/48/7
f 1/36/23 33/47/1 36/54/2 2/31/19
f 33/47/1 34/1/1 35/4/2 36/54/2
