# Blender 3.6.4
# www.blender.org
mtllib shutter_Low.mtl
o shutter_low
v 0.125652 2.015381 3.557643
v -0.376396 2.768172 3.557643
v -0.376396 2.015381 3.557643
v -0.376396 2.015381 3.277166
v -0.376396 2.768172 3.277166
v 0.125652 2.015381 3.277166
v -0.376396 2.768172 0.000000
v 0.125652 2.015381 0.000000
v -0.376396 2.015381 0.000000
v -0.073585 2.768172 3.557643
v -0.177158 2.768172 3.557643
v -0.073585 2.015381 3.557643
v -0.177158 2.015381 3.557643
v -0.177158 2.015381 3.277166
v -0.177158 2.768172 3.277166
v -0.073585 2.768172 3.277166
v -0.177158 2.768172 0.000000
v -0.073585 2.768172 0.000000
v -0.177158 2.015381 0.000000
v 0.125652 2.677252 3.557643
v 0.034732 2.768172 3.557643
v 0.125652 2.677252 3.277166
v 0.034732 2.768172 3.277166
v 0.034732 2.768172 0.000000
v 0.125652 2.677252 0.000000
v -0.376396 -1.934081 3.277166
v -0.376396 -1.934081 3.557643
v -0.177158 -1.934081 3.277166
v -0.073585 -1.934081 3.557643
v -0.177158 -1.934081 3.557643
v -0.073585 2.015381 3.300848
v -0.091269 2.015381 3.277166
v -0.091269 -1.934081 3.277166
v -0.073585 -1.934081 3.300848
v -0.072919 2.015381 3.277166
v -0.091269 2.015381 0.000000
v -0.072919 2.015381 0.000000
v -0.376396 2.768172 3.300848
v 0.125652 2.015381 3.300848
v -0.177158 2.768172 3.300848
v -0.073585 2.768172 3.300848
v 0.034732 2.768172 3.300848
v 0.125652 2.677252 3.300848
v -0.376396 -1.934081 3.300848
v -0.177158 -1.934081 3.300848
v -0.276777 2.015381 3.557643
v -0.276777 2.768172 3.557643
v -0.276777 2.768172 3.277166
v -0.276777 2.015381 3.277166
v -0.276777 2.015381 0.000000
v -0.276777 2.768172 0.000000
v -0.276777 -1.934081 3.557643
v -0.276777 -1.934081 3.277166
v -0.276777 -1.934081 3.300848
v -0.276777 2.768172 3.300848
v 0.125652 2.015381 -3.557643
v -0.376396 2.768172 -3.557643
v -0.376396 2.015381 -3.557643
v -0.376396 2.015381 -3.277166
v -0.376396 2.768172 -3.277166
v 0.125652 2.015381 -3.277166
v -0.073585 2.768172 -3.557643
v -0.177158 2.768172 -3.557643
v -0.073585 2.015381 -3.557643
v -0.177158 2.015381 -3.557643
v -0.177158 2.015381 -3.277166
v -0.177158 2.768172 -3.277166
v -0.073585 2.768172 -3.277166
v 0.125652 2.677252 -3.557643
v 0.034732 2.768172 -3.557643
v 0.125652 2.677252 -3.277166
v 0.034732 2.768172 -3.277166
v -0.376396 -1.934081 -3.277166
v -0.376396 -1.934081 -3.557643
v -0.177158 -1.934081 -3.277166
v -0.073585 -1.934081 -3.557643
v -0.177158 -1.934081 -3.557643
v -0.073585 2.015381 -3.300848
v -0.091269 2.015381 -3.277166
v -0.091269 -1.934081 -3.277166
v -0.073585 -1.934081 -3.300848
v -0.072919 2.015381 -3.277166
v -0.376396 2.768172 -3.300848
v 0.125652 2.015381 -3.300848
v -0.177158 2.768172 -3.300848
v -0.073585 2.768172 -3.300848
v 0.034732 2.768172 -3.300848
v 0.125652 2.677252 -3.300848
v -0.376396 -1.934081 -3.300848
v -0.177158 -1.934081 -3.300848
v -0.276777 2.015381 -3.557643
v -0.276777 2.768172 -3.557643
v -0.276777 2.768172 -3.277166
v -0.276777 2.015381 -3.277166
v -0.276777 -1.934081 -3.557643
v -0.276777 -1.934081 -3.277166
v -0.276777 -1.934081 -3.300848
v -0.276777 2.768172 -3.300848
v -0.153920 2.056499 3.286713
v -0.153919 -1.928148 3.286713
v -0.153920 2.056499 -3.286713
v -0.153919 -1.928148 -3.286713
v -0.332620 2.056499 -3.286713
v -0.332620 2.056499 3.286713
v -0.332619 -1.928148 3.286713
v -0.332619 -1.928148 -3.286713
vn 0.3827 0.9239 -0.0000
vn -0.0000 1.0000 -0.0000
vn 0.3521 -0.6188 -0.7023
vn 0.7272 -0.6426 -0.2415
vn -0.0000 -1.0000 -0.0000
vn -0.0000 -0.7071 -0.7071
vn -0.0000 0.7071 0.7071
vn 0.2971 0.7173 0.6303
vn 0.7071 -0.7071 -0.0000
vn 0.9239 0.3827 -0.0000
vn 0.7173 0.2971 0.6303
vn 0.5774 -0.5774 0.5774
vn -0.0000 -0.0000 1.0000
vn 0.3015 -0.3015 0.9045
vn -0.0000 -0.7071 0.7071
vn 0.5874 -0.7854 -0.1951
vn 0.2545 -0.8231 -0.5076
vn 0.3521 -0.6188 0.7023
vn 0.7272 -0.6426 0.2415
vn 0.2971 0.7173 -0.6303
vn -0.0000 0.7071 -0.7071
vn 0.5774 -0.5774 -0.5774
vn 0.7173 0.2971 -0.6303
vn 0.3015 -0.3015 -0.9045
vn -0.0000 -0.0000 -1.0000
vn 0.5874 -0.7854 0.1951
vn 0.2545 -0.8231 0.5076
vn 1.0000 -0.0000 -0.0000
vt 0.209949 0.448342
vt 0.196298 0.448342
vt 0.196298 0.035346
vt 0.209949 0.035346
vt 0.757143 0.594817
vt 0.760127 0.592588
vt 0.760127 0.605640
vt 0.757143 0.605640
vt 0.209949 0.032362
vt 0.196298 0.032362
vt 0.196298 0.000000
vt 0.209949 0.000000
vt 0.094868 0.448342
vt 0.011458 0.448342
vt 0.011458 0.035346
vt 0.094868 0.035346
vt 0.170692 0.448342
vt 0.158138 0.448342
vt 0.158138 0.035346
vt 0.170692 0.035346
vt 0.145583 0.448342
vt 0.133029 0.448342
vt 0.133029 0.035346
vt 0.145583 0.035346
vt 0.170692 0.032362
vt 0.158138 0.032362
vt 0.158138 0.000000
vt 0.170692 0.000000
vt 0.094868 0.032362
vt 0.011458 0.032362
vt 0.011458 0.000000
vt 0.094868 0.000000
vt 0.183246 0.448342
vt 0.183246 0.035346
vt 0.795304 0.000000
vt 0.795304 0.094868
vt 0.782251 0.094868
vt 0.782251 0.000000
vt 0.183246 0.032362
vt 0.183246 0.000000
vt 0.807858 0.094868
vt 0.807858 0.000000
vt 0.820412 0.000000
vt 0.820412 0.094868
vt 0.000000 0.032362
vt 0.000000 0.000000
vt 0.000000 0.448342
vt 0.000000 0.035346
vt 0.757143 0.094868
vt 0.757143 0.011458
vt 0.768601 0.000000
vt 0.760127 0.618195
vt 0.792489 0.605640
vt 0.792489 0.618195
vt 0.886666 0.502154
vt 0.919028 0.502154
vt 0.919028 0.999873
vt 0.886666 0.999873
vt 0.795304 0.592588
vt 0.782251 0.592588
vt 0.820412 0.592588
vt 0.807858 0.592588
vt 0.883681 0.999873
vt 0.883681 0.502154
vt 0.953830 0.000000
vt 0.964654 0.000000
vt 0.964654 0.497720
vt 0.953830 0.497720
vt 0.122205 0.035346
vt 0.119893 0.035346
vt 0.119977 0.032362
vt 0.122205 0.448342
vt 0.119893 0.448342
vt 0.094868 0.035346
vt 0.094868 0.448342
vt 0.757143 0.618195
vt 0.094868 0.032362
vt 0.094868 0.000000
vt 0.119977 0.000000
vt 0.792489 0.592588
vt 0.757143 0.630749
vt 0.760127 0.630749
vt 0.792489 0.630749
vt 0.209949 0.861337
vt 0.196298 0.861337
vt 0.757143 0.666681
vt 0.757143 0.655857
vt 0.760127 0.655857
vt 0.760127 0.668910
vt 0.209949 0.864321
vt 0.209949 0.896683
vt 0.196298 0.896683
vt 0.196298 0.864321
vt 0.094868 0.861337
vt 0.011458 0.861337
vt 0.170692 0.861337
vt 0.158138 0.861337
vt 0.145583 0.861337
vt 0.133029 0.861337
vt 0.170692 0.864321
vt 0.170692 0.896683
vt 0.158138 0.896683
vt 0.158138 0.864321
vt 0.094868 0.864322
vt 0.094868 0.896683
vt 0.011458 0.896683
vt 0.011458 0.864322
vt 0.183246 0.861337
vt 0.845520 0.000000
vt 0.858573 0.000000
vt 0.858573 0.094868
vt 0.845520 0.094868
vt 0.183246 0.864321
vt 0.183246 0.896683
vt 0.832966 0.094868
vt 0.820412 0.094868
vt 0.820412 0.000000
vt 0.832966 0.000000
vt 0.000000 0.864322
vt 0.000000 0.896683
vt 0.000000 0.861337
vt 0.883681 0.094868
vt 0.872223 0.000000
vt 0.883681 0.011458
vt 0.760127 0.643303
vt 0.792489 0.643303
vt 0.792489 0.655857
vt 0.997016 0.000000
vt 0.997016 0.497720
vt 0.858573 0.592588
vt 0.845520 0.592588
vt 0.832966 0.592588
vt 0.820412 0.592588
vt 1.000000 0.497720
vt 1.000000 0.000000
vt 0.939545 0.497720
vt 0.939545 0.995439
vt 0.928721 0.995439
vt 0.928721 0.497720
vt 0.122205 0.861337
vt 0.119977 0.864321
vt 0.119893 0.861337
vt 0.094868 0.861337
vt 0.757143 0.643303
vt 0.094868 0.864321
vt 0.094868 0.896683
vt 0.119977 0.896683
vt 0.792489 0.668910
vt 0.757143 0.630749
vt 0.760127 0.630749
vt 0.792489 0.630749
vt 0.941276 0.497720
vt 0.941276 0.000000
vt 0.928721 0.000000
vt 0.952100 0.497720
vt 0.952100 0.995439
vt 0.964654 0.995439
vt 0.209949 0.000000
vt 0.712103 -0.000000
vt 0.712103 0.828397
vt 0.209949 0.828397
vt 0.712103 0.000000
vt 0.734623 0.000000
vt 0.734623 0.828397
vt 0.757143 0.828397
vt 0.757143 0.000000
vt 0.906201 0.502154
vt 0.883681 0.502154
vt 0.883681 0.000000
vt 0.906201 0.000000
vt 0.906201 0.000000
vt 0.928721 0.000000
vt 0.928721 0.502154
vt 0.906201 0.502154
s 1
usemtl Material
f 24/1/1 18/2/2 16/3/2 23/4/1
f 33/5/3 34/6/4 45/7/5 28/8/6
f 42/9/1 41/10/2 10/11/7 21/12/8
f 8/13/9 25/14/10 22/15/10 6/16/9
f 51/17/2 7/18/2 5/19/2 48/20/2
f 50/21/5 19/22/5 14/23/6 49/24/6
f 55/25/2 38/26/2 2/27/7 47/28/7
f 39/29/9 43/30/10 20/31/11 1/32/12
f 17/33/2 15/34/2 16/3/2 18/2/2
f 11/35/7 13/36/13 12/37/14 10/38/7
f 40/39/2 11/40/7 10/11/7 41/10/2
f 46/41/13 47/42/7 2/43/7 3/44/13
f 42/45/1 21/46/8 20/31/11 43/30/10
f 24/47/1 23/48/1 22/15/10 25/14/10
f 1/49/12 20/50/11 21/51/8 10/38/7 12/37/14
f 54/52/5 45/7/5 30/53/15 52/54/15
f 31/55/16 12/56/14 29/57/12 34/58/4
f 12/37/14 13/36/13 30/59/15 29/60/12
f 46/41/13 3/44/13 27/61/15 52/62/15
f 33/63/3 32/64/17 31/55/16 34/58/4
f 14/65/6 32/66/17 33/67/3 28/68/6
f 32/69/17 35/70/5 31/71/16
f 35/70/5 32/69/17 36/72/5 37/73/5
f 6/74/9 35/70/5 37/73/5 8/75/9
f 19/22/5 36/72/5 32/69/17 14/23/6
f 53/76/6 28/8/6 45/7/5 54/52/5
f 23/48/1 42/45/1 43/30/10 22/15/10
f 15/34/2 40/39/2 41/10/2 16/3/2
f 6/16/9 22/15/10 43/30/10 39/29/9
f 48/20/2 5/19/2 38/26/2 55/25/2
f 23/4/1 16/3/2 41/10/2 42/9/1
f 6/74/9 39/77/9 31/71/16 35/70/5
f 1/78/12 12/79/14 31/71/16 39/77/9
f 45/7/5 34/6/4 29/80/12 30/53/15
f 15/34/2 48/20/2 55/25/2 40/39/2
f 26/81/6 53/76/6 54/52/5 44/82/5
f 13/36/13 46/41/13 52/62/15 30/59/15
f 44/82/5 54/52/5 52/54/15 27/83/15
f 13/36/13 11/35/7 47/42/7 46/41/13
f 40/39/2 55/25/2 47/28/7 11/40/7
f 9/18/5 50/21/5 49/24/6 4/19/6
f 17/33/2 51/17/2 48/20/2 15/34/2
f 24/1/1 72/84/1 68/85/2 18/2/2
f 80/86/18 75/87/15 90/88/5 81/89/19
f 87/90/1 70/91/20 62/92/21 86/93/2
f 8/13/9 61/94/9 71/95/10 25/14/10
f 51/17/2 93/96/2 60/97/2 7/18/2
f 50/21/5 94/98/15 66/99/15 19/22/5
f 98/100/2 92/101/21 57/102/21 83/103/2
f 84/104/9 56/105/22 69/106/23 88/107/10
f 17/33/2 18/2/2 68/85/2 67/108/2
f 63/109/21 62/110/21 64/111/24 65/112/25
f 85/113/2 86/93/2 62/92/21 63/114/21
f 91/115/25 58/116/25 57/117/21 92/118/21
f 87/119/1 88/107/10 69/106/23 70/120/20
f 24/47/1 25/14/10 71/95/10 72/121/1
f 56/122/22 64/111/24 62/110/21 70/123/20 69/124/23
f 97/125/5 95/126/6 77/127/6 90/88/5
f 78/128/26 81/129/19 76/67/22 64/66/24
f 64/111/24 76/130/22 77/131/6 65/112/25
f 91/115/25 95/132/6 74/133/6 58/116/25
f 80/134/18 81/129/19 78/128/26 79/135/27
f 66/136/15 75/137/15 80/138/18 79/139/27
f 79/140/27 78/141/26 82/142/5
f 82/142/5 37/73/5 36/72/5 79/140/27
f 61/143/9 8/75/9 37/73/5 82/142/5
f 19/22/5 66/99/15 79/140/27 36/72/5
f 96/144/15 97/125/5 90/88/5 75/87/15
f 72/121/1 71/95/10 88/107/10 87/119/1
f 67/108/2 68/85/2 86/93/2 85/113/2
f 61/94/9 84/104/9 88/107/10 71/95/10
f 93/96/2 98/100/2 83/103/2 60/97/2
f 72/84/1 87/90/1 86/93/2 68/85/2
f 61/143/9 82/142/5 78/141/26 84/145/9
f 56/146/22 84/145/9 78/141/26 64/147/24
f 90/88/5 77/127/6 76/148/22 81/89/19
f 67/108/2 85/113/2 98/100/2 93/96/2
f 73/149/15 89/150/5 97/125/5 96/144/15
f 65/112/25 77/131/6 95/132/6 91/115/25
f 89/150/5 74/151/6 95/126/6 97/125/5
f 65/112/25 91/115/25 92/118/21 63/109/21
f 85/113/2 63/114/21 92/101/21 98/100/2
f 9/18/5 59/97/15 94/98/15 50/21/5
f 17/33/2 67/108/2 93/96/2 51/17/2
f 28/68/6 53/152/6 49/153/6 14/65/6
f 49/153/6 53/152/6 26/139/6 4/154/6
f 75/137/15 66/136/15 94/155/15 96/156/15
f 94/155/15 59/67/15 73/157/15 96/156/15
s 0
f 99/158/28 100/159/28 102/160/28 101/161/28
f 100/162/5 105/163/5 106/164/5 102/160/5
f 101/165/2 103/164/2 104/163/2 99/166/2
f 102/167/25 106/168/25 103/169/25 101/170/25
f 99/171/13 104/172/13 105/173/13 100/174/13
