# Blender 3.6.4
# www.blender.org
mtllib vent3_Low.mtl
o Low
v -0.097344 -1.690048 -0.899898
v -0.097344 -1.690048 0.899898
v -0.097344 1.690048 -0.899898
v -0.097344 1.690048 0.899898
v 0.097344 -1.690048 -0.899898
v 0.097344 -1.690048 0.899898
v 0.097344 1.690048 -0.899898
v 0.097344 1.690048 0.899898
v -0.097344 1.790149 -1.000000
v -0.097344 -1.790149 -1.000000
v -0.097344 -1.790149 1.000000
v -0.097344 1.790149 1.000000
v 0.084815 1.790149 1.000000
v 0.097344 1.777621 0.987471
v 0.097344 1.777621 -0.987471
v 0.084815 1.790149 -1.000000
v 0.097344 -1.777621 -0.987471
v 0.084815 -1.790149 -1.000000
v 0.084815 -1.790149 1.000000
v 0.097344 -1.777621 0.987471
v -0.069621 1.603374 0.899148
v -0.043997 1.639061 0.899148
v -0.069621 1.603374 -0.899148
v -0.043997 1.639061 -0.899148
v 0.043997 1.521796 0.899148
v 0.069621 1.557483 0.899148
v 0.043997 1.521796 -0.899148
v 0.069621 1.557482 -0.899148
v -0.069621 1.404023 0.899148
v -0.043997 1.439710 0.899148
v -0.069621 1.404022 -0.899148
v -0.043997 1.439709 -0.899148
v 0.043997 1.322444 0.899148
v 0.069621 1.358131 0.899148
v 0.043997 1.322444 -0.899148
v 0.069621 1.358131 -0.899148
v -0.069621 1.204671 0.899148
v -0.043997 1.240358 0.899148
v -0.069621 1.204671 -0.899148
v -0.043997 1.240358 -0.899148
v 0.043997 1.123092 0.899148
v 0.069621 1.158779 0.899148
v 0.043997 1.123092 -0.899148
v 0.069621 1.158779 -0.899148
v -0.069621 1.005319 0.899148
v -0.043997 1.041006 0.899148
v -0.069621 1.005319 -0.899148
v -0.043997 1.041006 -0.899148
v 0.043997 0.923740 0.899148
v 0.069621 0.959427 0.899148
v 0.043997 0.923740 -0.899148
v 0.069621 0.959427 -0.899148
v -0.069621 0.805967 0.899148
v -0.043997 0.841654 0.899148
v -0.069621 0.805967 -0.899148
v -0.043997 0.841654 -0.899148
v 0.043997 0.724388 0.899148
v 0.069621 0.760075 0.899148
v 0.043997 0.724388 -0.899148
v 0.069621 0.760075 -0.899148
v -0.069621 0.606615 0.899148
v -0.043997 0.642302 0.899148
v -0.069621 0.606615 -0.899148
v -0.043997 0.642302 -0.899148
v 0.043997 0.525036 0.899148
v 0.069621 0.560723 0.899148
v 0.043997 0.525036 -0.899148
v 0.069621 0.560723 -0.899148
v -0.069621 0.407263 0.899148
v -0.043997 0.442950 0.899148
v -0.069621 0.407263 -0.899148
v -0.043997 0.442950 -0.899148
v 0.043997 0.325684 0.899148
v 0.069621 0.361371 0.899148
v 0.043997 0.325684 -0.899148
v 0.069621 0.361371 -0.899148
v -0.069621 0.207911 0.899148
v -0.043997 0.243598 0.899148
v -0.069621 0.207911 -0.899148
v -0.043997 0.243598 -0.899148
v 0.043997 0.126332 0.899148
v 0.069621 0.162019 0.899148
v 0.043997 0.126332 -0.899148
v 0.069621 0.162019 -0.899148
v -0.069621 0.008559 0.899148
v -0.043997 0.044246 0.899148
v -0.069621 0.008559 -0.899148
v -0.043997 0.044246 -0.899148
v 0.043997 -0.073020 0.899148
v 0.069621 -0.037333 0.899148
v 0.043997 -0.073020 -0.899148
v 0.069621 -0.037333 -0.899148
v -0.069621 -0.190793 0.899148
v -0.043997 -0.155106 0.899148
v -0.069621 -0.190793 -0.899148
v -0.043997 -0.155106 -0.899148
v 0.043997 -0.272372 0.899148
v 0.069621 -0.236685 0.899148
v 0.043997 -0.272372 -0.899148
v 0.069621 -0.236685 -0.899148
v -0.069621 -0.390145 0.899148
v -0.043997 -0.354458 0.899148
v -0.069621 -0.390145 -0.899148
v -0.043997 -0.354458 -0.899148
v 0.043997 -0.471724 0.899148
v 0.069621 -0.436037 0.899148
v 0.043997 -0.471723 -0.899148
v 0.069621 -0.436036 -0.899148
v -0.069621 -0.589497 0.899148
v -0.043997 -0.553810 0.899148
v -0.069621 -0.589497 -0.899148
v -0.043997 -0.553810 -0.899148
v 0.043997 -0.671076 0.899148
v 0.069621 -0.635389 0.899148
v 0.043997 -0.671075 -0.899148
v 0.069621 -0.635388 -0.899148
v -0.069621 -0.788849 0.899148
v -0.043997 -0.753162 0.899148
v -0.069621 -0.788848 -0.899148
v -0.043997 -0.753161 -0.899148
v 0.043997 -0.870427 0.899148
v 0.069621 -0.834740 0.899148
v 0.043997 -0.870427 -0.899148
v 0.069621 -0.834740 -0.899148
v -0.069621 -0.988200 0.899148
v -0.043997 -0.952513 0.899148
v -0.069621 -0.988200 -0.899148
v -0.043997 -0.952513 -0.899148
v 0.043997 -1.069779 0.899148
v 0.069621 -1.034092 0.899148
v 0.043997 -1.069779 -0.899148
v 0.069621 -1.034092 -0.899148
v -0.069621 -1.187552 0.899148
v -0.043997 -1.151865 0.899148
v -0.069621 -1.187552 -0.899148
v -0.043997 -1.151865 -0.899148
v 0.043997 -1.269131 0.899148
v 0.069621 -1.233444 0.899148
v 0.043997 -1.269131 -0.899148
v 0.069621 -1.233444 -0.899148
v -0.069621 -1.386904 0.899148
v -0.043997 -1.351217 0.899148
v -0.069621 -1.386904 -0.899148
v -0.043997 -1.351217 -0.899148
v 0.043997 -1.468483 0.899148
v 0.069621 -1.432796 0.899148
v 0.043997 -1.468483 -0.899148
v 0.069621 -1.432796 -0.899148
v -0.069621 -1.586256 0.899148
v -0.043997 -1.550569 0.899148
v -0.069621 -1.586256 -0.899148
v -0.043997 -1.550569 -0.899148
v 0.043997 -1.667835 0.899148
v 0.069621 -1.632148 0.899148
v 0.043997 -1.667835 -0.899148
v 0.069621 -1.632148 -0.899148
vn 0.9045 -0.3015 -0.3015
vn 0.9045 0.3015 -0.3015
vn 0.5774 0.5774 -0.5774
vn 0.5774 -0.5774 -0.5774
vn 0.9054 0.3002 0.3002
vn 0.9054 -0.3002 0.3002
vn 0.9045 -0.3015 0.3015
vn 0.5774 -0.5774 0.5774
vn 0.9045 0.3015 0.3015
vn 0.9054 -0.3002 -0.3002
vn 0.9054 0.3002 -0.3002
vn -0.0000 0.7071 -0.7071
vn -0.0000 0.7071 0.7071
vn 0.3914 0.6507 0.6507
vn 0.3914 0.6507 -0.6507
vn 0.3914 -0.6507 -0.6507
vn -0.0000 -0.7071 -0.7071
vn 0.3914 -0.6507 0.6507
vn -0.0000 -0.7071 0.7071
vn 0.5774 0.5774 0.5774
vn -0.8057 -0.1322 0.5774
vn -0.1322 0.8057 0.5774
vn -0.1322 0.8057 -0.5774
vn -0.8057 -0.1322 -0.5774
vn 0.8057 0.1322 -0.5774
vn 0.1322 -0.8057 -0.5774
vn 0.8123 -0.5832 -0.0000
vn 0.1322 -0.8057 0.5774
vn 0.8057 0.1322 0.5774
vn 0.1322 -0.8057 -0.5773
vn 0.8057 0.1322 0.5773
vn -0.8057 -0.1323 0.5774
vn -0.1323 0.8057 0.5773
vn -0.1323 0.8057 -0.5774
vn -0.8057 -0.1323 -0.5774
vt 0.778860 0.628435
vt 0.778860 0.000000
vt 0.815057 0.000000
vt 0.815057 0.628435
vt 0.018611 0.018611
vt 0.018611 0.647046
vt 0.002329 0.663328
vt 0.002329 0.002329
vt 0.871007 0.706466
vt 0.871007 0.371844
vt 0.900409 0.371844
vt 0.900409 0.706466
vt 0.353233 0.647046
vt 0.353233 0.018611
vt 0.369515 0.002329
vt 0.369515 0.663327
vt 0.851254 0.743689
vt 0.851254 0.371844
vt 0.871007 0.743689
vt 0.408041 0.665657
vt 0.374174 0.665657
vt 0.374174 0.000000
vt 0.408041 0.000000
vt 0.851254 0.000000
vt 0.878764 0.000000
vt 0.878764 0.371844
vt 0.899876 0.000000
vt 0.899876 0.334622
vt 0.878764 0.334622
vt 0.878764 0.000000
vt 0.851254 0.628435
vt 0.371844 0.665657
vt 0.000000 0.665657
vt 0.371844 0.663328
vt 0.371844 0.002329
vt 0.441909 0.665657
vt 0.441909 0.000000
vt 0.444238 0.002329
vt 0.444238 0.663328
vt 0.000000 -0.000000
vt 0.371844 -0.000000
vt 0.444238 0.628435
vt 0.444238 0.000000
vt 0.778860 -0.000000
vt 0.778860 0.628435
vt 0.324209 0.665657
vt 0.332377 0.665657
vt 0.332377 1.000000
vt 0.324209 1.000000
vt 0.381386 0.691662
vt 0.373218 0.691662
vt 0.373218 0.665657
vt 0.381386 0.665657
vt 0.804109 0.962778
vt 0.797474 0.962778
vt 0.797474 0.628435
vt 0.804109 0.628435
vt 0.389555 0.665657
vt 0.389555 0.691662
vt 0.925881 0.334343
vt 0.899876 0.334343
vt 0.925881 0.000000
vt 0.782307 0.962778
vt 0.782307 0.628435
vt 0.340546 0.665657
vt 0.340546 1.000000
vt 0.397723 0.691662
vt 0.389555 0.691662
vt 0.389555 0.665657
vt 0.397723 0.665657
vt 0.825912 0.962778
vt 0.819277 0.962778
vt 0.819277 0.628435
vt 0.825912 0.628435
vt 0.365050 0.691662
vt 0.373218 0.691662
vt 0.373218 0.717668
vt 0.365050 0.717668
vt 0.522254 0.962778
vt 0.496249 0.962778
vt 0.496249 0.628435
vt 0.522254 0.628435
vt 0.258864 0.665657
vt 0.267032 0.665657
vt 0.267032 1.000000
vt 0.258864 1.000000
vt 0.405891 0.691662
vt 0.397723 0.691662
vt 0.397723 0.665657
vt 0.405891 0.665657
vt 0.847714 0.962778
vt 0.841079 0.962778
vt 0.841079 0.628435
vt 0.847714 0.628435
vt 0.422227 0.665657
vt 0.430396 0.665657
vt 0.430396 0.691662
vt 0.422227 0.691662
vt 0.548259 0.962778
vt 0.548259 0.628435
vt 0.825912 0.962778
vt 0.825912 0.628435
vt 0.226191 0.665657
vt 0.234360 0.665657
vt 0.234360 1.000000
vt 0.226191 1.000000
vt 0.438564 0.691662
vt 0.430396 0.691662
vt 0.430396 0.665657
vt 0.438564 0.665657
vt 0.973689 0.334343
vt 0.967054 0.334343
vt 0.967054 0.000000
vt 0.973689 0.000000
vt 0.356882 0.691662
vt 0.365050 0.691662
vt 0.365050 0.717668
vt 0.356882 0.717668
vt 0.926415 0.706187
vt 0.900409 0.706187
vt 0.900409 0.371844
vt 0.926415 0.371844
vt 0.951886 0.334343
vt 0.951886 0.000000
vt 0.234360 0.665657
vt 0.242528 0.665657
vt 0.242528 1.000000
vt 0.234360 1.000000
vt 0.430395 0.717667
vt 0.422227 0.717667
vt 0.422227 0.691662
vt 0.430395 0.691662
vt 0.974222 0.706187
vt 0.967587 0.706187
vt 0.967587 0.371844
vt 0.974222 0.371844
vt 0.405891 0.665657
vt 0.414059 0.665657
vt 0.414059 0.691662
vt 0.405891 0.691662
vt 0.951886 0.334343
vt 0.925881 0.334343
vt 0.925881 0.000000
vt 0.951886 0.000000
vt 0.952420 0.706187
vt 0.952420 0.371844
vt 0.275200 0.665657
vt 0.275200 1.000000
vt 0.267032 1.000000
vt 0.414059 0.717668
vt 0.405891 0.717668
vt 0.405891 0.691662
vt 0.414059 0.691662
vt 0.995491 0.334343
vt 0.988856 0.334343
vt 0.988856 0.000000
vt 0.995491 0.000000
vt 0.365050 0.743673
vt 0.373218 0.743673
vt 0.373218 0.769678
vt 0.365050 0.769678
vt 0.926415 0.371844
vt 0.952420 0.371844
vt 0.283369 0.665657
vt 0.291537 0.665657
vt 0.291537 1.000000
vt 0.283369 1.000000
vt 0.405891 0.743673
vt 0.397723 0.743673
vt 0.397723 0.717667
vt 0.405891 0.717667
vt 0.065407 1.000000
vt 0.058772 1.000000
vt 0.058772 0.665657
vt 0.065407 0.665657
vt 0.430396 0.691662
vt 0.438564 0.691662
vt 0.438564 0.717668
vt 0.430396 0.717668
vt 0.600270 0.962778
vt 0.574265 0.962778
vt 0.574265 0.628435
vt 0.600270 0.628435
vt 0.043605 1.000000
vt 0.043605 0.665657
vt 0.242528 0.665657
vt 0.250696 0.665657
vt 0.250696 1.000000
vt 0.242528 1.000000
vt 0.414059 0.743673
vt 0.405891 0.743673
vt 0.405891 0.717667
vt 0.414059 0.717667
vt 0.996025 0.706187
vt 0.989390 0.706187
vt 0.989390 0.371844
vt 0.996025 0.371844
vt 0.356882 0.717668
vt 0.365050 0.717668
vt 0.365050 0.743673
vt 0.356882 0.743673
vt 0.470243 0.962778
vt 0.444238 0.962778
vt 0.444238 0.628435
vt 0.470243 0.628435
vt 0.974222 0.706187
vt 0.258864 0.665657
vt 0.258864 1.000000
vt 0.422227 0.743673
vt 0.414059 0.743673
vt 0.414059 0.717667
vt 0.422227 0.717667
vt 0.021802 1.000000
vt 0.015167 1.000000
vt 0.015167 0.665657
vt 0.021802 0.665657
vt 0.389555 0.717668
vt 0.397723 0.717668
vt 0.397723 0.743673
vt 0.389555 0.743673
vt 0.496249 0.962778
vt 0.470243 0.962778
vt 0.000000 1.000000
vt 0.000000 0.665657
vt 0.275200 0.665657
vt 0.283369 0.665657
vt 0.283369 1.000000
vt 0.275200 1.000000
vt 0.389555 0.769678
vt 0.381386 0.769678
vt 0.381386 0.743673
vt 0.389555 0.743673
vt 0.087209 1.000000
vt 0.080574 1.000000
vt 0.080574 0.665657
vt 0.087209 0.665657
vt 0.381386 0.691662
vt 0.389555 0.691662
vt 0.389555 0.717668
vt 0.381386 0.717668
vt 0.626275 0.962778
vt 0.600270 0.962778
vt 0.600270 0.628435
vt 0.626275 0.628435
vt 0.065407 1.000000
vt 0.065407 0.665657
vt 0.307873 0.665657
vt 0.316041 0.665657
vt 0.316041 1.000000
vt 0.307873 1.000000
vt 0.373218 0.743673
vt 0.365050 0.743673
vt 0.365050 0.717667
vt 0.373218 0.717667
vt 0.130814 1.000000
vt 0.124179 1.000000
vt 0.124179 0.665657
vt 0.130814 0.665657
vt 0.373218 0.717667
vt 0.381387 0.717667
vt 0.381387 0.743673
vt 0.373218 0.743673
vt 0.652281 0.962778
vt 0.652281 0.628435
vt 0.109012 1.000000
vt 0.109012 0.665657
vt 0.324209 1.000000
vt 0.389555 0.743673
vt 0.381386 0.743673
vt 0.381386 0.717667
vt 0.389555 0.717667
vt 0.152616 1.000000
vt 0.145981 1.000000
vt 0.145981 0.665657
vt 0.152616 0.665657
vt 0.414059 0.691662
vt 0.422227 0.691662
vt 0.414059 0.717667
vt 0.678286 0.962778
vt 0.678286 0.628435
vt 0.291537 0.665657
vt 0.299705 0.665657
vt 0.299705 1.000000
vt 0.291537 1.000000
vt 0.397723 0.717667
vt 0.389555 0.691662
vt 0.397723 0.691662
vt 0.174419 1.000000
vt 0.167784 1.000000
vt 0.167784 0.665657
vt 0.174419 0.665657
vt 0.405891 0.717668
vt 0.397723 0.717668
vt 0.704291 0.962778
vt 0.704291 0.628435
vt 0.381386 0.717667
vt 0.373218 0.717667
vt 0.373218 0.691662
vt 0.381386 0.691662
vt 0.109012 1.000000
vt 0.102377 1.000000
vt 0.102377 0.665657
vt 0.109012 0.665657
vt 0.414059 0.665657
vt 0.422227 0.665657
vt 0.422227 0.691662
vt 0.414059 0.691662
vt 0.574265 0.962778
vt 0.574265 0.628435
vt 0.087209 1.000000
vt 0.087209 0.665657
vt 0.218023 0.665657
vt 0.226191 0.665657
vt 0.218023 1.000000
vt 0.365050 0.691662
vt 0.356882 0.691662
vt 0.356882 0.665657
vt 0.365050 0.665657
vt 0.043605 1.000000
vt 0.036970 1.000000
vt 0.036970 0.665657
vt 0.043605 0.665657
vt 0.365050 0.665657
vt 0.730296 0.962778
vt 0.704291 0.962778
vt 0.704291 0.628435
vt 0.730296 0.628435
vt 0.021802 0.665657
vt 0.340546 0.665657
vt 0.348714 0.665657
vt 0.348714 1.000000
vt 0.340546 1.000000
vt 0.438564 0.743673
vt 0.430395 0.743673
vt 0.430395 0.717667
vt 0.438564 0.717667
vt 0.196221 1.000000
vt 0.189586 1.000000
vt 0.189586 0.665657
vt 0.196221 0.665657
vt 0.422227 0.717668
vt 0.430395 0.717668
vt 0.430395 0.743673
vt 0.422227 0.743673
vt 0.756302 0.962778
vt 0.756302 0.628435
vt 0.174419 0.665657
vt 0.356882 0.665657
vt 0.356882 1.000000
vt 0.381386 0.769678
vt 0.373218 0.769678
vt 0.381386 0.743673
vt 0.211388 1.000000
vt 0.211388 0.665657
vt 0.218023 0.665657
vt 0.356882 0.743673
vt 0.365050 0.743673
vt 0.365050 0.769678
vt 0.356882 0.769678
vt 0.782307 0.962778
vt 0.756302 0.962778
vt 0.756302 0.628435
vt 0.782307 0.628435
vt 0.196221 1.000000
vt 0.196221 0.665657
s 1
f 8/1/1 6/2/2 2/3/3 4/4/4
f 6/5/2 8/6/1 14/7/5 20/8/6
f 7/9/7 8/10/1 4/11/4 3/12/8
f 7/13/7 5/14/9 17/15/10 15/16/11
f 9/17/12 12/18/13 13/10/14 16/19/15
f 9/20/12 16/21/15 18/22/16 10/23/17
f 5/14/9 6/5/2 20/8/6 17/15/10
f 8/6/1 7/13/7 15/16/11 14/7/5
f 18/18/16 19/24/18 11/25/19 10/26/17
f 6/27/2 5/28/9 1/29/20 2/30/3
f 5/24/9 7/31/7 3/4/8 1/3/20
f 14/7/5 15/16/11 16/32/15 13/33/14
f 18/22/16 16/21/15 15/34/11 17/35/10
f 13/36/14 19/37/18 20/38/6 14/39/5
f 19/40/18 18/41/16 17/15/10 20/8/6
f 13/36/14 12/20/13 11/23/19 19/37/18
f 4/42/4 2/43/3 1/44/20 3/45/8
f 21/46/21 22/47/22 24/48/23 23/49/24
f 23/50/24 24/51/23 28/52/25 27/53/26
s 0
f 27/54/27 28/55/27 26/56/27 25/57/27
s 1
f 25/53/28 26/58/29 22/59/22 21/50/21
f 23/60/24 27/61/26 25/27/28 21/62/21
f 28/55/25 24/63/23 22/64/22 26/56/29
f 29/47/21 30/65/22 32/66/23 31/48/24
f 31/67/24 32/68/23 36/69/25 35/70/26
s 0
f 35/71/27 36/72/27 34/73/27 33/74/27
s 1
f 33/75/28 34/76/29 30/77/22 29/78/21
f 31/79/24 35/80/26 33/81/28 29/82/21
f 36/72/25 32/54/23 30/57/22 34/73/29
f 37/83/21 38/84/22 40/85/23 39/86/24
f 39/87/24 40/88/23 44/89/25 43/90/26
s 0
f 43/91/27 44/92/27 42/93/27 41/94/27
s 1
f 41/95/28 42/96/29 38/97/22 37/98/21
f 39/99/24 43/79/26 41/82/28 37/100/21
f 44/92/25 40/101/23 38/102/22 42/93/29
f 45/103/21 46/104/22 48/105/23 47/106/24
f 47/107/24 48/108/23 52/109/25 51/110/26
s 0
f 51/111/27 52/112/27 50/113/27 49/114/27
s 1
f 49/115/28 50/116/29 46/117/22 45/118/21
f 47/119/24 51/120/26 49/121/28 45/122/21
f 52/112/25 48/123/23 46/124/22 50/113/29
f 53/125/21 54/126/22 56/127/23 55/128/24
f 55/129/24 56/130/23 60/131/25 59/132/26
s 0
f 59/133/27 60/134/27 58/135/27 57/136/27
s 1
f 57/137/28 58/138/29 54/139/22 53/140/21
f 55/141/24 59/142/26 57/143/28 53/144/21
f 60/134/25 56/145/23 54/146/22 58/135/29
f 61/84/21 62/147/22 64/148/23 63/149/24
f 63/150/24 64/151/23 68/152/25 67/153/26
s 0
f 67/154/27 68/155/27 66/156/27 65/157/27
s 1
f 65/158/28 66/159/29 62/160/22 61/161/21
f 63/145/24 67/119/26 65/162/28 61/163/21
f 68/155/25 64/111/23 62/114/22 66/156/29
f 69/164/21 70/165/22 72/166/23 71/167/24
f 71/168/24 72/169/23 76/170/25 75/171/26
s 0
f 75/172/27 76/173/27 74/174/27 73/175/27
s 1
f 73/176/28 74/177/29 70/178/22 69/179/21
f 71/180/24 75/181/26 73/182/28 69/183/21
f 76/173/25 72/184/23 70/185/22 74/174/29
f 77/186/21 78/187/22 80/188/23 79/189/24
f 79/190/24 80/191/23 84/192/25 83/193/30
s 0
f 83/194/27 84/195/27 82/196/27 81/197/27
s 1
f 81/198/28 82/199/31 78/200/22 77/201/21
f 79/202/24 83/203/30 81/204/28 77/205/21
f 84/195/25 80/206/23 78/136/22 82/196/31
f 85/187/21 86/207/22 88/208/23 87/188/24
f 87/209/24 88/210/23 92/211/25 91/212/26
s 0
f 91/213/27 92/214/27 90/215/27 89/216/27
s 1
f 89/217/28 90/218/29 86/219/22 85/220/21
f 87/221/24 91/222/26 89/205/28 85/81/21
f 92/214/25 88/223/23 86/224/22 90/215/29
f 93/225/21 94/226/22 96/227/23 95/228/24
f 95/229/24 96/230/23 100/231/25 99/232/26
s 0
f 99/233/27 100/234/27 98/235/27 97/236/27
s 1
f 97/237/28 98/238/29 94/239/22 93/240/21
f 95/241/24 99/242/26 97/243/28 93/244/21
f 100/234/25 96/245/23 94/246/22 98/235/29
f 101/247/21 102/248/22 104/249/23 103/250/24
f 103/251/24 104/252/23 108/253/25 107/254/26
s 0
f 107/255/27 108/256/27 106/257/27 105/258/27
s 1
f 105/259/28 106/260/29 102/261/22 101/262/21
f 103/263/24 107/241/26 105/244/28 101/264/21
f 108/256/25 104/265/23 102/266/22 106/257/29
f 109/248/21 110/46/22 112/267/23 111/249/24
f 111/268/24 112/269/23 116/270/25 115/271/26
s 0
f 115/272/27 116/273/27 114/274/27 113/275/27
s 1
f 113/276/28 114/277/29 110/130/22 109/278/21
f 111/279/24 115/263/26 113/264/28 109/280/21
f 116/273/25 112/255/23 110/258/22 114/274/29
f 117/281/21 118/282/22 120/283/23 119/284/24
f 119/285/24 120/271/23 124/286/25 123/287/26
s 0
f 123/288/27 124/289/27 122/290/27 121/291/27
s 1
f 121/88/28 122/87/29 118/292/22 117/293/21
f 119/294/24 123/279/26 121/280/28 117/295/21
f 124/289/25 120/272/23 118/275/22 122/290/29
f 125/282/21 126/247/22 128/250/23 127/283/24
f 127/296/24 128/297/23 132/298/25 131/299/26
s 0
f 131/300/27 132/301/27 130/302/27 129/303/27
s 1
f 129/304/28 130/305/29 126/306/22 125/307/21
f 127/308/24 131/99/26 129/100/28 125/309/21
f 132/301/25 128/310/23 126/311/22 130/302/29
f 133/312/32 134/313/33 136/106/34 135/314/35
f 135/315/35 136/316/34 140/317/25 139/318/26
s 0
f 139/319/27 140/320/27 138/321/27 137/322/27
s 1
f 137/323/28 138/52/29 134/51/33 133/315/32
f 135/324/35 139/325/26 137/326/28 133/327/32
f 140/320/25 136/213/34 134/328/33 138/321/29
f 141/329/21 142/330/22 144/331/23 143/332/24
f 143/333/24 144/334/23 148/335/25 147/336/26
s 0
f 147/337/27 148/338/27 146/339/27 145/340/27
s 1
f 145/341/28 146/342/29 142/343/22 141/344/21
f 143/345/24 147/324/26 145/327/28 141/346/21
f 148/338/25 144/288/23 142/347/22 146/339/29
f 149/330/21 150/348/22 152/349/23 151/331/24
f 151/350/24 152/351/23 156/251/25 155/352/26
s 0
f 155/314/27 156/353/27 154/354/27 153/355/27
s 1
f 153/356/28 154/357/29 150/358/22 149/359/21
f 151/360/24 155/361/26 153/362/28 149/363/21
f 156/353/25 152/364/23 150/365/22 154/354/29
