# Blender 3.6.4
# www.blender.org
mtllib Window_Low.mtl
o Low
v 0.118135 1.351899 -1.351899
v 0.118135 -1.351899 -1.351899
v 0.118135 1.351899 1.351899
v 0.118135 -1.351899 1.351899
v -0.118135 1.461324 -1.461324
v -0.118135 -1.461324 -1.461324
v -0.118135 1.461324 1.461324
v -0.118135 -1.461324 1.461324
v 0.118135 1.461324 -1.461324
v 0.118135 -1.461324 -1.461324
v 0.118135 1.461324 1.461324
v 0.118135 -1.461324 1.461324
v 0.004990 1.351899 -1.351899
v 0.004990 -1.351899 -1.351899
v 0.004990 1.351899 1.351899
v 0.004990 -1.351899 1.351899
v -0.029116 -0.972734 -0.492588
v -0.029116 -1.029495 -0.437858
v -0.029116 -1.029495 0.437858
v -0.029116 -0.972734 0.492588
v -0.029116 -1.351899 -0.437858
v -0.029116 -1.351899 -0.492588
v -0.029116 -1.351899 0.492588
v -0.029116 -1.351899 0.437858
v 0.118135 -0.933144 -1.461324
v 0.118135 0.054264 -1.461324
v -0.118135 -0.933144 1.461324
v -0.118135 0.054264 1.461324
v 0.118135 0.054264 1.461324
v 0.118135 -0.933144 1.461324
v -0.118135 0.054264 -1.461324
v -0.118135 -0.933144 -1.461324
v 0.118135 -0.933144 -1.351899
v 0.118135 0.054264 -1.351899
v 0.118135 0.054264 1.351899
v 0.118135 -0.933144 1.351899
v 0.004990 0.054264 -1.351899
v 0.004990 -0.933144 -1.351899
v 0.004990 -0.933144 1.351899
v 0.004990 0.054264 1.351899
v -0.029116 -0.972734 1.351899
v -0.029116 -1.351899 1.351899
v -0.029116 -1.351899 -1.351899
v -0.029116 -0.972734 -1.351899
v -0.118135 -1.461324 -0.492588
v -0.118135 -1.461324 -0.437858
v -0.118135 -1.461324 0.437858
v -0.118135 -1.461324 0.492588
v 0.118135 1.461324 -0.492588
v 0.118135 1.461324 -0.437858
v 0.118135 1.461324 0.437858
v 0.118135 1.461324 0.492588
v -0.118135 1.461324 0.492588
v -0.118135 1.461324 0.437858
v -0.118135 1.461324 -0.437858
v -0.118135 1.461324 -0.492588
v 0.118135 -1.461324 0.492588
v 0.118135 -1.461324 0.437858
v 0.118135 -1.461324 -0.437858
v 0.118135 -1.461324 -0.492588
v 0.118135 1.351899 -0.437858
v 0.118135 1.351899 -0.492588
v 0.118135 1.351899 0.492588
v 0.118135 1.351899 0.437858
v 0.118135 -1.351899 0.492588
v 0.118135 -1.351899 0.437858
v 0.118135 -1.351899 -0.437858
v 0.118135 -1.351899 -0.492588
v 0.004990 1.351899 -0.437858
v 0.004990 1.351899 -0.492588
v 0.004990 1.351899 0.492588
v 0.004990 1.351899 0.437858
v 0.004990 -1.351899 0.437858
v 0.004990 -1.351899 0.492588
v 0.004990 -1.351899 -0.492588
v 0.004990 -1.351899 -0.437858
v 0.004990 0.054264 -0.492588
v 0.004990 0.054264 -0.437858
v 0.004990 -0.989906 -0.437858
v 0.004990 -0.933144 -0.492588
v 0.004990 -0.933144 0.492588
v 0.004990 -0.989906 0.437858
v 0.004990 0.054264 0.437858
v 0.004990 0.054264 0.492588
vn 1.0000 -0.0000 -0.0000
vn -0.0000 -0.0000 1.0000
vn -0.0000 1.0000 -0.0000
vn -0.0000 -0.0000 -1.0000
vn -0.0000 -1.0000 -0.0000
vn 0.6274 -0.5405 -0.5606
vn 0.7576 -0.6527 -0.0000
vn 0.6274 -0.5405 0.5606
vt 0.222865 0.320878
vt 0.320878 0.320878
vt 0.333359 0.333359
vt 0.222865 0.333359
vt 0.000000 0.666718
vt 0.000000 0.606474
vt 0.333359 0.606474
vt 0.333359 0.666718
vt 0.814728 0.431373
vt 0.666718 0.431373
vt 0.666718 0.333359
vt 0.814728 0.333359
vt 0.666718 0.333359
vt 0.333359 0.222865
vt 0.666718 0.222865
vt 0.874478 0.641756
vt 0.874478 0.739770
vt 0.714839 0.739770
vt 0.714839 0.641756
vt 0.000000 0.493849
vt 0.000000 0.333359
vt 0.333359 0.493849
vt 0.666718 0.493849
vt 0.000000 0.975115
vt 0.000000 0.927352
vt 0.159639 0.927352
vt 0.159639 0.975115
vt 0.666718 0.216622
vt 0.333359 0.216622
vt 0.333359 0.116737
vt 0.666718 0.116737
vt 0.116737 0.320878
vt 0.216622 0.320878
vt 0.216622 0.333359
vt 0.116737 0.333359
vt 0.415519 0.927352
vt 0.415519 0.975115
vt 0.255881 0.975115
vt 0.255881 0.927352
vt 0.814728 0.641756
vt 0.666718 0.641756
vt 0.666718 0.543743
vt 0.814728 0.543743
vt 0.415519 0.666718
vt 0.415519 0.814728
vt 0.255881 0.814728
vt 0.255881 0.666718
vt 0.927352 0.543743
vt 0.927352 0.641756
vt 0.000000 0.814728
vt 0.000000 0.666718
vt 0.159639 0.666718
vt 0.159639 0.814728
vt 0.320878 0.160490
vt 0.320878 0.012481
vt 0.333359 0.000000
vt 0.333359 0.160490
vt 0.012481 0.273115
vt 0.012481 0.320878
vt 0.000000 0.273115
vt 0.012481 0.012481
vt 0.012481 0.160490
vt 0.000000 0.160490
vt 0.000000 0.000000
vt 0.207760 0.931868
vt 0.207760 0.975115
vt 0.320878 0.273115
vt 0.333359 0.273115
vt 0.814728 0.537500
vt 0.666718 0.537500
vt 0.666718 0.437615
vt 0.814728 0.437615
vt 0.874478 0.746012
vt 0.874478 0.845897
vt 0.714839 0.845897
vt 0.714839 0.746012
vt 0.874478 0.852140
vt 0.874478 0.950153
vt 0.714839 0.950153
vt 0.714839 0.852140
vt 0.415519 0.877102
vt 0.575121 0.877102
vt 0.575121 0.975115
vt 0.110495 0.320878
vt 0.110495 0.333359
vt 0.666718 0.110495
vt 0.333359 0.110495
vt 0.666718 0.000000
vt 0.110495 0.012481
vt 0.110495 0.000000
vt 0.415519 0.870859
vt 0.415519 0.770975
vt 0.575121 0.770975
vt 0.575121 0.870859
vt 0.415519 0.764732
vt 0.415519 0.666718
vt 0.575121 0.666718
vt 0.575121 0.764732
vt 1.000000 0.216622
vt 0.666718 0.216622
vt 0.666718 0.116737
vt 1.000000 0.116737
vt 1.000000 0.110495
vt 0.666718 0.110495
vt 0.666718 0.000000
vt 1.000000 -0.000000
vt 0.666718 0.739770
vt 0.666718 0.641756
vt 0.666718 0.746012
vt 0.216622 0.012481
vt 0.116737 0.012481
vt 0.116737 0.000000
vt 0.216622 0.000000
vt 0.222865 0.012481
vt 0.222865 0.000000
vt 0.666718 0.606474
vt 0.917726 0.739770
vt 0.874478 0.739770
vt 0.874478 0.641756
vt 0.917726 0.641756
vt 0.933826 0.437615
vt 0.933826 0.537500
vt 0.927352 0.333359
vt 0.927352 0.431373
vt 0.666718 0.666718
vt 1.000000 0.222865
vt 0.666718 0.222865
vt 0.623328 0.666718
vt 0.629774 0.667323
vt 0.629774 0.715656
vt 0.623328 0.715051
vt 0.575121 0.864617
vt 0.575121 0.766603
vt 0.623328 0.766603
vt 0.623328 0.864617
vt 1.000000 0.333359
vt 0.917726 0.845897
vt 0.880952 0.845897
vt 0.880952 0.746012
vt 0.917726 0.746012
vt 0.917726 0.950153
vt 0.874478 0.852139
vt 0.917726 0.852139
vt 0.575121 0.666718
vt 0.623328 0.666718
vt 0.666718 0.852140
vt 0.666718 0.845897
vt 0.636220 0.666718
vt 0.636220 0.715051
vt 0.575121 0.962630
vt 0.575121 0.864616
vt 0.623328 0.864616
vt 0.623328 0.962630
vt 0.666718 0.950153
s 0
usemtl Material
f 65/1/1 4/2/1 12/3/1 57/4/1
f 12/5/2 30/6/2 27/7/2 8/8/2
f 84/9/1 71/10/1 15/11/1 40/12/1
f 9/13/3 5/3/3 56/14/3 49/15/3
f 4/16/3 65/17/3 74/18/3 16/19/3
f 29/20/2 11/21/2 7/3/2 28/22/2
f 31/22/4 5/3/4 9/13/4 26/23/4
f 2/24/2 33/25/2 38/26/2 14/27/2
f 50/28/3 55/29/3 54/30/3 51/31/3
f 67/32/1 66/33/1 58/34/1 59/35/1
f 36/36/4 4/37/4 16/38/4 39/39/4
f 37/40/1 13/41/1 70/42/1 77/43/1
f 3/44/4 35/45/4 40/46/4 15/47/4
f 37/40/1 77/43/1 80/48/1 38/49/1
f 34/50/2 1/51/2 13/52/2 37/53/2
f 35/54/1 3/55/1 11/56/1 29/57/1
f 33/58/1 2/59/1 10/21/1 25/60/1
f 1/61/1 34/62/1 26/63/1 9/64/1
f 14/27/2 38/26/2 44/65/2 43/66/2
f 4/2/1 36/67/1 30/68/1 12/3/1
f 78/69/1 69/70/1 72/71/1 83/72/1
f 66/73/3 67/74/3 76/75/3 73/76/3
f 68/77/3 2/78/3 14/79/3 75/80/3
f 1/37/5 62/81/5 70/82/5 13/83/5
f 2/59/1 68/84/1 60/85/1 10/21/1
f 52/86/3 53/87/3 7/56/3 11/88/3
f 62/89/1 1/61/1 9/64/1 49/90/1
f 61/91/5 64/92/5 72/93/5 69/94/5
f 63/95/5 3/96/5 15/97/5 71/98/5
f 46/99/5 59/100/5 58/101/5 47/102/5
f 48/103/5 57/104/5 12/105/5 8/106/5
f 16/19/3 74/18/3 23/107/3 42/108/3
f 74/18/3 73/76/3 24/109/3 23/107/3
f 64/110/1 61/111/1 50/112/1 51/113/1
f 3/55/1 63/114/1 52/115/1 11/56/1
f 36/36/4 39/39/4 40/46/4 35/45/4
f 34/50/2 37/53/2 38/26/2 33/25/2
f 35/54/1 29/57/1 30/68/1 36/67/1
f 33/58/1 25/60/1 26/63/1 34/62/1
f 31/22/4 26/23/4 25/116/4 32/7/4
f 23/117/1 20/118/1 41/119/1 42/120/1
f 29/20/2 28/22/2 27/7/2 30/6/2
f 78/69/1 83/72/1 82/121/1 79/122/1
f 84/9/1 40/12/1 39/123/1 81/124/1
f 6/8/4 32/7/4 25/116/4 10/125/4
f 66/73/3 73/76/3 74/18/3 65/17/3
f 68/77/3 75/80/3 76/75/3 67/74/3
f 67/32/1 59/35/1 60/85/1 68/84/1
f 65/1/1 57/4/1 58/34/1 66/33/1
f 64/110/1 51/113/1 52/115/1 63/114/1
f 62/89/1 49/90/1 50/112/1 61/111/1
f 61/91/5 69/94/5 70/82/5 62/81/5
f 63/95/5 71/98/5 72/93/5 64/92/5
f 59/100/5 46/99/5 45/126/5 60/127/5
f 57/104/5 48/103/5 47/102/5 58/101/5
f 55/29/3 50/28/3 49/15/3 56/14/3
f 53/87/3 52/86/3 51/31/3 54/30/3
f 82/121/1 83/72/1 84/9/1 81/124/1
f 78/69/1 79/122/1 80/48/1 77/43/1
f 80/128/6 79/129/6 18/130/6 17/131/6
f 69/70/1 78/69/1 77/43/1 70/42/1
f 81/132/7 39/133/7 41/134/7 20/135/7
f 83/72/1 72/71/1 71/10/1 84/9/1
f 6/136/5 10/11/5 60/127/5 45/126/5
f 21/137/1 18/138/1 19/139/1 24/140/1
f 43/141/1 44/78/1 17/142/1 22/143/1
f 18/138/1 21/137/1 22/143/1 17/142/1
f 24/140/1 19/139/1 20/118/1 23/117/1
f 79/133/7 82/144/7 19/145/7 18/134/7
f 76/75/3 75/80/3 22/146/3 21/147/3
f 82/129/8 81/148/8 20/149/8 19/130/8
f 73/76/3 76/75/3 21/147/3 24/109/3
f 38/150/7 80/151/7 17/152/7 44/153/7
f 75/80/3 14/79/3 43/154/3 22/146/3
f 39/39/4 16/38/4 42/66/4 41/65/4
