# Blender 4.0.2
# www.blender.org
mtllib Window_Low.mtl
o Low
v 0.118135 1.351899 -1.351899
v 0.118135 -1.351899 -1.351899
v 0.118135 1.351899 1.351899
v 0.118135 -1.351899 1.351899
v -0.118135 1.461324 -1.461324
v -0.118135 -1.461324 -1.461324
v -0.118135 1.461324 1.461324
v -0.118135 -1.461324 1.461324
v 0.118135 1.461324 -1.461324
v 0.118135 -1.461324 -1.461324
v 0.118135 1.461324 1.461324
v 0.118135 -1.461324 1.461324
v 0.004990 1.351899 -1.351899
v 0.004990 -1.351899 -1.351899
v 0.004990 1.351899 1.351899
v 0.004990 -1.351899 1.351899
v -0.029116 -0.972734 -0.492588
v -0.029116 -1.029495 -0.437858
v -0.029116 -1.029495 0.437858
v -0.029116 -0.972734 0.492588
v -0.029116 -1.351899 -0.437858
v -0.029116 -1.351899 -0.492588
v -0.029116 -1.351899 0.492588
v -0.029116 -1.351899 0.437858
v 0.118135 -0.933144 -1.461324
v 0.118135 0.054264 -1.461324
v -0.118135 -0.933144 1.461324
v -0.118135 0.054264 1.461324
v 0.118135 0.054264 1.461324
v 0.118135 -0.933144 1.461324
v -0.118135 0.054264 -1.461324
v -0.118135 -0.933144 -1.461324
v 0.118135 -0.933144 -1.351899
v 0.118135 0.054264 -1.351899
v 0.118135 0.054264 1.351899
v 0.118135 -0.933144 1.351899
v 0.004990 0.054264 -1.351899
v 0.004990 -0.933144 -1.351899
v 0.004990 -0.933144 1.351899
v 0.004990 0.054264 1.351899
v -0.029116 -0.972734 1.351899
v -0.029116 -1.351899 1.351899
v -0.029116 -1.351899 -1.351899
v -0.029116 -0.972734 -1.351899
v -0.118135 -1.461324 -0.492588
v -0.118135 -1.461324 -0.437858
v -0.118135 -1.461324 0.437858
v -0.118135 -1.461324 0.492588
v 0.118135 1.461324 -0.492588
v 0.118135 1.461324 -0.437858
v 0.118135 1.461324 0.437858
v 0.118135 1.461324 0.492588
v -0.118135 1.461324 0.492588
v -0.118135 1.461324 0.437858
v -0.118135 1.461324 -0.437858
v -0.118135 1.461324 -0.492588
v 0.118135 -1.461324 0.492588
v 0.118135 -1.461324 0.437858
v 0.118135 -1.461324 -0.437858
v 0.118135 -1.461324 -0.492588
v 0.118135 1.351899 -0.437858
v 0.118135 1.351899 -0.492588
v 0.118135 1.351899 0.492588
v 0.118135 1.351899 0.437858
v 0.118135 -1.351899 0.492588
v 0.118135 -1.351899 0.437858
v 0.118135 -1.351899 -0.437858
v 0.118135 -1.351899 -0.492588
v 0.004990 1.351899 -0.437858
v 0.004990 1.351899 -0.492588
v 0.004990 1.351899 0.492588
v 0.004990 1.351899 0.437858
v 0.004990 -1.351899 0.437858
v 0.004990 -1.351899 0.492588
v 0.004990 -1.351899 -0.492588
v 0.004990 -1.351899 -0.437858
v 0.004990 0.054264 -0.492588
v 0.004990 0.054264 -0.437858
v 0.004990 -0.989906 -0.437858
v 0.004990 -0.933144 -0.492588
v 0.004990 -0.933144 0.492588
v 0.004990 -0.989906 0.437858
v 0.004990 0.054264 0.437858
v 0.004990 0.054264 0.492588
vn 1.0000 -0.0000 -0.0000
vn -0.0000 -0.0000 1.0000
vn -0.0000 1.0000 -0.0000
vn -0.0000 -0.0000 -1.0000
vn -0.0000 -1.0000 -0.0000
vn 0.6274 -0.5405 -0.5606
vn 0.7576 -0.6527 -0.0000
vn 0.6274 -0.5405 0.5606
vt 0.617890 0.938112
vt 0.823961 0.938113
vt 0.824716 0.957934
vt 0.617890 0.957933
vt 0.924467 0.867369
vt 0.924467 0.755673
vt 0.996552 0.755676
vt 0.996552 0.866979
vt 0.394936 0.587214
vt 0.394936 0.869710
vt 0.195635 0.869710
vt 0.195634 0.587214
vt 0.189409 0.110876
vt 0.189409 0.013683
vt 0.398734 0.013661
vt 0.398734 0.110876
vt 0.617890 0.905597
vt 0.823961 0.905596
vt 0.924467 0.521908
vt 0.924467 0.201746
vt 0.996437 0.201747
vt 0.996495 0.521908
vt 0.010483 0.508198
vt 0.010483 0.176177
vt 0.110423 0.175645
vt 0.110423 0.508197
vt 0.128488 0.868010
vt 0.128488 0.751395
vt 0.173534 0.751396
vt 0.173612 0.868011
vt 0.411268 0.110876
vt 0.411270 0.013644
vt 0.611821 0.013644
vt 0.611821 0.110876
vt 0.394758 0.938112
vt 0.604765 0.938112
vt 0.604764 0.957933
vt 0.394758 0.957933
vt 0.901321 0.755673
vt 0.901321 0.867764
vt 0.839525 0.867764
vt 0.839545 0.755673
vt 0.815216 0.587214
vt 0.815216 0.869710
vt 0.615914 0.869710
vt 0.615914 0.587214
vt 0.901321 0.201746
vt 0.901321 0.521908
vt 0.839545 0.521908
vt 0.839525 0.201746
vt 0.615914 0.376128
vt 0.815216 0.376128
vt 0.128488 0.508197
vt 0.128488 0.175113
vt 0.173612 0.175113
vt 0.173534 0.508197
vt 0.110423 0.868010
vt 0.110423 0.751395
vt 0.187244 0.751395
vt 0.187245 0.868011
vt 0.602843 0.587214
vt 0.602843 0.869710
vt 0.408007 0.869710
vt 0.408007 0.587214
vt 0.394757 0.905597
vt 0.604765 0.905597
vt 0.381633 0.938112
vt 0.175557 0.938113
vt 0.175557 0.905596
vt 0.381632 0.905597
vt 0.189765 0.126977
vt 0.398734 0.126978
vt 0.398733 0.179292
vt 0.190120 0.179292
vt 0.381633 0.957933
vt 0.176096 0.957934
vt 0.624355 0.110876
vt 0.624355 0.013644
vt 0.832345 0.013644
vt 0.833012 0.110876
vt 0.411268 0.126978
vt 0.611821 0.126978
vt 0.611821 0.179292
vt 0.411267 0.179292
vt 0.624355 0.126978
vt 0.833324 0.126977
vt 0.832969 0.179292
vt 0.624355 0.179292
vt 0.394755 0.996026
vt 0.604763 0.996026
vt 0.617882 0.994770
vt 0.824662 0.994787
vt 0.617890 0.875756
vt 0.823961 0.875755
vt 0.604765 0.875756
vt 0.010476 0.751397
vt 0.394936 0.196616
vt 0.394936 0.286597
vt 0.195634 0.286597
vt 0.195634 0.196616
vt 0.408007 0.376128
vt 0.602843 0.376128
vt 0.195634 0.376128
vt 0.394936 0.376128
vt 0.010468 0.868011
vt 0.381630 0.996027
vt 0.617882 0.996026
vt 0.602843 0.286597
vt 0.615914 0.286597
vt 0.176112 0.996033
vt 0.602843 0.196616
vt 0.408007 0.286597
vt 0.408007 0.196616
vt 0.815216 0.196616
vt 0.815216 0.286597
vt 0.615914 0.196616
vt 0.381632 0.875756
vt 0.394757 0.875756
vt 0.175557 0.875755
vt 0.820856 0.867764
vt 0.820856 0.755672
s 0
usemtl Material
f 65/1/1 4/2/1 12/3/1 57/4/1
f 12/5/2 30/6/2 27/7/2 8/8/2
f 84/9/1 71/10/1 15/11/1 40/12/1
f 9/13/3 5/14/3 56/15/3 49/16/3
f 4/2/3 65/1/3 74/17/3 16/18/3
f 29/19/2 11/20/2 7/21/2 28/22/2
f 31/23/4 5/24/4 9/25/4 26/26/4
f 2/27/2 33/28/2 38/29/2 14/30/2
f 50/31/3 55/32/3 54/33/3 51/34/3
f 67/35/1 66/36/1 58/37/1 59/38/1
f 36/39/4 4/40/4 16/41/4 39/42/4
f 37/43/1 13/44/1 70/45/1 77/46/1
f 3/47/4 35/48/4 40/49/4 15/50/4
f 37/43/1 77/46/1 80/51/1 38/52/1
f 34/53/2 1/54/2 13/55/2 37/56/2
f 35/48/1 3/47/1 11/20/1 29/19/1
f 33/28/1 2/27/1 10/57/1 25/58/1
f 1/54/1 34/53/1 26/26/1 9/25/1
f 14/30/2 38/29/2 44/59/2 43/60/2
f 4/40/1 36/39/1 30/6/1 12/5/1
f 78/61/1 69/62/1 72/63/1 83/64/1
f 66/36/3 67/35/3 76/65/3 73/66/3
f 68/67/3 2/68/3 14/69/3 75/70/3
f 1/71/5 62/72/5 70/73/5 13/74/5
f 2/68/1 68/67/1 60/75/1 10/76/1
f 52/77/3 53/78/3 7/79/3 11/80/3
f 62/72/1 1/71/1 9/13/1 49/16/1
f 61/81/5 64/82/5 72/83/5 69/84/5
f 63/85/5 3/86/5 15/87/5 71/88/5
f 46/89/5 59/38/5 58/37/5 47/90/5
f 48/91/5 57/4/5 12/3/5 8/92/5
f 16/18/3 74/17/3 23/93/3 42/94/3
f 74/17/3 73/66/3 24/95/3 23/93/3
f 64/82/1 61/81/1 50/31/1 51/34/1
f 3/86/1 63/85/1 52/77/1 11/80/1
f 36/39/4 39/42/4 40/49/4 35/48/4
f 34/53/2 37/56/2 38/29/2 33/28/2
f 35/48/1 29/19/1 30/6/1 36/39/1
f 33/28/1 25/58/1 26/26/1 34/53/1
f 31/23/4 26/26/4 25/58/4 32/96/4
f 23/97/1 20/98/1 41/99/1 42/100/1
f 29/19/2 28/22/2 27/7/2 30/6/2
f 78/61/1 83/64/1 82/101/1 79/102/1
f 84/9/1 40/12/1 39/103/1 81/104/1
f 6/105/4 32/96/4 25/58/4 10/57/4
f 66/36/3 73/66/3 74/17/3 65/1/3
f 68/67/3 75/70/3 76/65/3 67/35/3
f 67/35/1 59/38/1 60/75/1 68/67/1
f 65/1/1 57/4/1 58/37/1 66/36/1
f 64/82/1 51/34/1 52/77/1 63/85/1
f 62/72/1 49/16/1 50/31/1 61/81/1
f 61/81/5 69/84/5 70/73/5 62/72/5
f 63/85/5 71/88/5 72/83/5 64/82/5
f 59/38/5 46/89/5 45/106/5 60/75/5
f 57/4/5 48/107/5 47/90/5 58/37/5
f 55/32/3 50/31/3 49/16/3 56/15/3
f 53/78/3 52/77/3 51/34/3 54/33/3
f 82/101/1 83/64/1 84/9/1 81/104/1
f 78/61/1 79/102/1 80/51/1 77/46/1
f 80/51/6 79/102/6 18/108/6 17/109/6
f 69/62/1 78/61/1 77/46/1 70/45/1
f 81/104/7 39/103/7 41/99/7 20/98/7
f 83/64/1 72/63/1 71/10/1 84/9/1
f 6/110/5 10/76/5 60/75/5 45/106/5
f 21/111/1 18/108/1 19/112/1 24/113/1
f 43/114/1 44/115/1 17/109/1 22/116/1
f 18/108/1 21/111/1 22/116/1 17/109/1
f 24/113/1 19/112/1 20/98/1 23/97/1
f 79/102/7 82/101/7 19/112/7 18/108/7
f 76/65/3 75/70/3 22/117/3 21/118/3
f 82/101/8 81/104/8 20/98/8 19/112/8
f 73/66/3 76/65/3 21/118/3 24/95/3
f 38/52/7 80/51/7 17/109/7 44/115/7
f 75/70/3 14/69/3 43/119/3 22/117/3
f 39/42/4 16/41/4 42/120/4 41/121/4
